<?xml version="1.0" encoding="utf-8"?>
<!-- Generator: Adobe Illustrator 18.0.0, SVG Export Plug-In . SVG Version: 6.00 Build 0)  -->
<!DOCTYPE svg PUBLIC "-//W3C//DTD SVG 1.1//EN" "http://www.w3.org/Graphics/SVG/1.1/DTD/svg11.dtd">
<svg version="1.1" id="Capa_1" xmlns="http://www.w3.org/2000/svg" xmlns:xlink="http://www.w3.org/1999/xlink" x="0px" y="0px"
	 viewBox="0 0 371.6 185.6" enable-background="new 0 0 371.6 185.6" xml:space="preserve">
<path fill="#4A4A30" d="M77.2,103.3h-7.8v20.4c0,0.3-0.3,0.6-0.6,0.6h-0.4c-0.4,0-0.6-0.3-0.6-0.6v-20.4H60c-0.4,0-0.7-0.2-0.7-0.5
	v-0.3c0-0.3,0.3-0.5,0.7-0.5h17.3c0.4,0,0.7,0.2,0.7,0.5v0.3C77.9,103.2,77.6,103.3,77.2,103.3"/>
<path fill="#4A4A30" d="M35.8,124.2h-0.4c-0.3,0-0.5-0.2-0.6-0.4l-3.1-8.1H21.2l-3,8.1c-0.1,0.2-0.3,0.4-0.6,0.4h-0.5
	c-0.5,0-0.7-0.3-0.5-0.7l7.5-20.2c0.3-0.9,1.2-1.5,2.4-1.5c1.2,0,2,0.5,2.3,1.4l7.5,20.2C36.5,123.9,36.3,124.2,35.8,124.2
	 M27.3,103.6c-0.1-0.3-0.3-0.6-0.8-0.6c-0.5,0-0.7,0.2-0.8,0.6l-4,10.8h9.7L27.3,103.6z"/>
<path fill="#4A4A30" d="M136.1,124.2h-0.4c-0.3,0-0.5-0.2-0.6-0.4l-3.1-8.1h-10.5l-3,8.1c-0.1,0.2-0.3,0.4-0.6,0.4h-0.5
	c-0.5,0-0.7-0.3-0.5-0.7l7.5-20.2c0.3-0.9,1.2-1.5,2.4-1.5c1.2,0,2,0.5,2.3,1.4l7.5,20.2C136.7,123.9,136.6,124.2,136.1,124.2
	 M127.6,103.6c-0.1-0.3-0.3-0.6-0.8-0.6c-0.5,0-0.7,0.2-0.8,0.6l-4,10.8h9.7L127.6,103.6z"/>
<path fill="#4A4A30" d="M178.9,124.2h-0.4c-0.3,0-0.5-0.2-0.6-0.4l-3.1-8.1h-10.5l-3,8.1c-0.1,0.2-0.3,0.4-0.6,0.4h-0.5
	c-0.5,0-0.7-0.3-0.5-0.7l7.5-20.2c0.3-0.9,1.2-1.5,2.4-1.5c1.2,0,2,0.5,2.3,1.4l7.5,20.2C179.6,123.9,179.5,124.2,178.9,124.2
	 M170.5,103.6c-0.1-0.3-0.3-0.6-0.8-0.6c-0.5,0-0.7,0.2-0.8,0.6l-4,10.8h9.7L170.5,103.6z"/>
<path fill="#4A4A30" d="M81.6,124.1h-0.4c-0.4,0-0.6-0.3-0.6-0.6v-20.9c0-0.3,0.3-0.6,0.6-0.6h0.4c0.4,0,0.6,0.3,0.6,0.6v20.9
	C82.2,123.8,81.9,124.1,81.6,124.1"/>
<path fill="#4A4A30" d="M55.3,124.3c-0.5,0-0.9,0-1.2-0.2c-0.2-0.2-0.5-0.4-0.7-0.7l-12.2-20c-0.1-0.1-0.1-0.2-0.3-0.2
	c-0.1,0-0.2,0.1-0.2,0.2v20.2c0,0.3-0.3,0.6-0.6,0.6h-0.4c-0.4,0-0.6-0.3-0.6-0.6v-20.2c0-0.9,0.7-1.5,1.8-1.5c1,0,1.4,0.4,1.7,0.9
	l12.2,20c0.1,0.1,0.1,0.2,0.3,0.2c0.1,0,0.2-0.1,0.2-0.3v-20.1c0-0.3,0.2-0.6,0.6-0.6h0.4c0.4,0,0.6,0.3,0.6,0.6v20.1
	C56.9,123.7,56.2,124.3,55.3,124.3"/>
<path fill="#4A4A30" d="M155.5,124.3c-0.5,0-0.9,0-1.2-0.2c-0.2-0.2-0.5-0.4-0.7-0.7l-12.2-20c-0.1-0.1-0.1-0.2-0.3-0.2
	c-0.1,0-0.2,0.1-0.2,0.2v20.2c0,0.3-0.2,0.6-0.6,0.6h-0.4c-0.4,0-0.6-0.3-0.6-0.6v-20.2c0-0.9,0.7-1.5,1.8-1.5c1,0,1.4,0.4,1.7,0.9
	l12.2,20c0.1,0.1,0.1,0.2,0.3,0.2c0.1,0,0.2-0.1,0.2-0.3v-20.1c0-0.3,0.2-0.6,0.6-0.6h0.4c0.4,0,0.6,0.3,0.6,0.6v20.1
	C157.1,123.7,156.4,124.3,155.5,124.3"/>
<path fill="#4A4A30" d="M6.8,124.3c-2.4,0-4.2-0.1-5.3-0.3c-0.7-0.1-1-0.2-1-0.6v-0.1c0-0.5,0.4-0.5,0.8-0.5
	c1.2,0.1,3.4,0.3,5.4,0.3c5.5,0,6.8-2,6.8-4.4c0-2.2-1.6-3-5.6-5l-2.3-1.2c-3.3-1.7-5.7-3.1-5.7-5.9c0-3.6,4.2-4.6,8.5-4.6
	c1.5,0,4,0.2,5,0.3c0.7,0.1,1,0.2,1,0.6v0.1c0,0.4-0.4,0.5-1.1,0.5c-0.3,0-3.4-0.2-4.9-0.2c-4.8,0-6.8,1.2-6.8,3.3
	c0,2.1,1.7,3.2,4.9,4.8l2.3,1.2c4.3,2.1,6.4,3.4,6.4,6.2C15.2,121.3,13.8,124.3,6.8,124.3"/>
<path fill="#4A4A30" d="M99.7,124.1h-8.3c-2.8,0-4.4-0.8-4.4-3.3v-18.2c0-0.3,0.3-0.6,0.6-0.6H88c0.4,0,0.6,0.3,0.6,0.6v18.2
	c0,1.8,1.1,2.1,2.8,2.1h8.3c0.4,0,0.7,0.2,0.7,0.5v0.2C100.4,123.9,100.1,124.1,99.7,124.1"/>
<path fill="#4A4A30" d="M114.7,124.1h-8.3c-2.8,0-4.4-0.8-4.4-3.3v-18.2c0-0.3,0.3-0.6,0.6-0.6h0.4c0.4,0,0.6,0.3,0.6,0.6v18.2
	c0,1.8,1.1,2.1,2.8,2.1h8.3c0.4,0,0.7,0.2,0.7,0.5v0.2C115.4,123.9,115.1,124.1,114.7,124.1"/>
<path fill="#4A4A30" d="M341,102.3h-14.7c-3.4,0-2.5,4.7-2.5,4.7h5.9v15.1c0,2.9,5.5,1.9,5.5,1.9v-17h3.4
	C342.1,107,341,102.3,341,102.3"/>
<path fill="#4A4A30" d="M208.4,119.9c-2.2,0.3-9.9,1-9.9-6.7c0-7.7,7.7-7,9.9-6.7c3.7,0.5,4-3.6,4-3.6c-13.3-3.5-19.4,3.2-19.4,10.3
	c0,7.2,6.1,13.8,19.4,10.3C212.4,123.5,212,119.4,208.4,119.9"/>
<path fill="#4A4A30" d="M223.1,124.1c-6.2,0-11-4.8-11-10.9c0-6.1,4.9-10.9,11-10.9c6.2,0,11.1,4.8,11.1,10.9
	C234.2,119.3,229.3,124.1,223.1,124.1 M223.1,106.9c-3.4,0-5.7,2.5-5.7,6.3c0,3.8,2.2,6.3,5.7,6.3c3.4,0,5.7-2.5,5.7-6.3
	C228.8,109.5,226.5,106.9,223.1,106.9"/>
<path fill="#4A4A30" d="M253.7,102.5l-6.4,10.9l-5.2-9.1c-2.1-3.1-6.1-1.8-6.1-1.8v19.6c0,2.8,5.5,1.9,5.5,1.9v-12.4
	c0,0,2.9,4.6,3.6,5.8c1.2,1.9,3.8,1.7,4.8,0l3.8-6.2v11c0,2.8,5.5,1.9,5.5,1.9v-19.6C259.1,101.5,253.7,102.5,253.7,102.5"/>
<path fill="#4A4A30" d="M318.2,115.6c2.6-1.2,4-3.4,4-6.1c0-5-3.9-7.5-9.2-7.5c-6.3,0-9.4,1.2-9.4,1.2v18.8c0,2.9,5.5,1.9,5.5,1.9
	v-17.1c1.1-0.2,2-0.3,3.3-0.3c2.5,0,4.3,0.5,4.3,3c0,1.3-0.8,2.3-2.9,2.6c-2.7,0.3-1.6,2.5-0.9,3.9l3.2,6.1c1.8,3.4,6.9,1.9,6.9,1.9
	L318.2,115.6z"/>
<path fill="#4A4A30" d="M366.9,115.6c2.6-1.2,4-3.4,4-6.1c0-5-3.9-7.5-9.2-7.5c-6.3,0-9.4,1.2-9.4,1.2v18.8c0,2.9,5.5,1.9,5.5,1.9
	v-17.1c1.1-0.2,2-0.3,3.3-0.3c2.5,0,4.3,0.5,4.3,3c0,1.3-0.8,2.3-2.9,2.6c-2.7,0.3-1.6,2.5-0.9,3.9l3.2,6.1c1.8,3.4,6.9,1.9,6.9,1.9
	L366.9,115.6z"/>
<path fill="#4A4A30" d="M271.9,102.1c-6.3,0-9.4,1.2-9.4,1.2v18.8c0,2.9,5.5,1.9,5.5,1.9v-7.2c1,0.1,2.1,0.1,4.2,0.1
	c5.7,0,8.9-3.3,8.9-7.4C281.2,104.5,277.2,102.1,271.9,102.1 M271.6,112.4c-1.6,0-2.5,0-3.6-0.1v-5.5c1.1-0.2,2-0.3,3.3-0.3
	c2.5,0,4.3,0.5,4.3,2.9C275.6,111,274.6,112.4,271.6,112.4"/>
<path fill="#4A4A30" d="M293.8,103.6c-1.1-2.6-5.6-1.2-5.6-1.2l-8.3,19.7c-1.1,2.8,5.1,1.8,5.1,1.8l1.7-4.3h8l0.9,2.4
	c1.2,3,6.6,1.9,6.6,1.9L293.8,103.6z M288.5,115l2.3-5.8l2.2,5.8H288.5z"/>
<path fill="#4A4A30" d="M343.4,102.4v19.7c0,2.9,5.5,1.9,5.5,1.9v-19.7C348.9,101.4,343.4,102.4,343.4,102.4"/>
<path fill="#F89728" d="M174.2,56.5c-1.8,0-2.6,1.2-1.7,2.8l11.6,19.2c0.5,0.8,1.1,1.1,1.7,1.1c0.6,0,1.2-0.4,1.7-1.1l11.6-19.2
	c0.9-1.5,0.2-2.8-1.7-2.8H174.2L174.2,56.5z"/>
<path fill="#F89728" d="M175.4,68.7l6.7,11c0.9,1.5,0.2,2.8-1.7,2.8c1.8,0,2.6-1.2,1.7-2.8L175.4,68.7z"/>
<path fill="#F89728" d="M180.4,82.5L180.4,82.5L180.4,82.5L180.4,82.5z M168.8,59.3c-0.6,0-1.2,0.4-1.7,1.1l-11.6,19.2
	c-0.9,1.5-0.2,2.8,1.7,2.8h0c-1.8,0-2.6-1.2-1.7-2.8l11.6-19.2C167.5,59.7,168.2,59.3,168.8,59.3c0.6,0,1.2,0.4,1.7,1.2l5,8.2
	l-5-8.2C170,59.7,169.4,59.3,168.8,59.3"/>
<path fill="#F26522" d="M168.8,59.3c-0.6,0-1.2,0.4-1.7,1.1l-11.6,19.2c-0.9,1.5-0.2,2.8,1.7,2.8h23.2h0c1.8,0,2.6-1.3,1.7-2.8
	l-6.7-11l-5-8.2C170,59.7,169.4,59.3,168.8,59.3"/>
<path fill="#F89728" d="M151.7,31.1c-0.6,0-1.2,0.4-1.7,1.1l-11.6,19.2c-0.9,1.5-0.2,2.8,1.7,2.8h23.2c1.8,0,2.6-1.2,1.7-2.8
	l-11.6-19.2C152.9,31.5,152.3,31.1,151.7,31.1"/>
<path fill="#F26522" d="M163.3,56.5h-23.2c-1.3,0-2.1,0.6-2.1,1.5c0,0.4,0.1,0.8,0.4,1.2L150,78.5c0.5,0.8,1.1,1.1,1.7,1.1
	c0.6,0,1.2-0.4,1.7-1.1L165,59.2c0.3-0.4,0.4-0.9,0.4-1.2C165.4,57.1,164.7,56.5,163.3,56.5"/>
<path fill="#009DDC" d="M157.1,28.2c-1.8,0-2.6,1.2-1.7,2.8l11.6,19.3c0.5,0.8,1.1,1.1,1.7,1.1c0.6,0,1.2-0.4,1.7-1.1L182,31
	c0.9-1.5,0.2-2.8-1.7-2.8H157.1L157.1,28.2z"/>
<path fill="#007DC3" d="M174.2,0c-1.3,0-2.1,0.6-2.1,1.5c0,0.4,0.1,0.8,0.4,1.2L184.1,22c0.5,0.8,1.1,1.1,1.7,1.1
	c0.6,0,1.2-0.4,1.7-1.1l11.6-19.2c0.3-0.4,0.4-0.9,0.4-1.2c0-0.9-0.7-1.6-2.1-1.6H174.2L174.2,0z"/>
<path fill="#009DDC" d="M168.8,2.9c-0.6,0-1.2,0.4-1.7,1.1l-11.6,19.2c-0.9,1.5-0.2,2.8,1.7,2.8h23.2c1.8,0,2.6-1.2,1.7-2.8L170.4,4
	C170,3.2,169.4,2.9,168.8,2.9"/>
<path fill="#007DC3" d="M202.8,2.9c-0.6,0-1.2,0.4-1.7,1.1l-11.6,19.2c-0.3,0.4-0.4,0.9-0.4,1.2c0,0.9,0.8,1.5,2.1,1.5h23.2
	c1.3,0,2.1-0.6,2.1-1.5c0-0.4-0.1-0.8-0.4-1.2L204.5,4C204,3.2,203.4,2.9,202.8,2.9"/>
<path fill="#49AA42" d="M202.8,59.3c-0.6,0-1.2,0.4-1.7,1.1l-11.6,19.2c-0.3,0.4-0.4,0.9-0.4,1.2c0,0.9,0.8,1.5,2.1,1.5h23.2
	c1.3,0,2.1-0.6,2.1-1.5c0-0.4-0.1-0.8-0.4-1.2l-11.6-19.2C204,59.7,203.4,59.3,202.8,59.3"/>
<path fill="#7AC143" d="M214.4,28.2h-23.2c-1.8,0-2.6,1.2-1.7,2.8l11.6,19.2c0.5,0.8,1.1,1.1,1.7,1.1c0.6,0,1.2-0.4,1.7-1.1
	L216.1,31C217,29.5,216.3,28.2,214.4,28.2"/>
<path fill="#7AC143" d="M219.8,31.1c-0.6,0-1.2,0.4-1.7,1.1l-11.6,19.2c-0.9,1.5-0.2,2.8,1.7,2.8h23.2c1.8,0,2.6-1.2,1.7-2.8
	l-11.6-19.2C221.1,31.5,220.4,31.1,219.8,31.1"/>
<path fill="#49AA42" d="M231.5,56.5h-23.2c-1.3,0-2.1,0.6-2.1,1.5c0,0.4,0.1,0.8,0.4,1.2l11.6,19.2c0.5,0.8,1.1,1.1,1.7,1.1
	c0.6,0,1.2-0.4,1.7-1.1l11.6-19.2c0.3-0.4,0.4-0.9,0.4-1.2C233.5,57.1,232.8,56.5,231.5,56.5"/>
<g>
	<path fill="#0A1420" d="M22,180.5V179h4v5.5H0v-38h4v34H22z"/>
	<path fill="#0A1420" d="M53.9,180.5V179h4v5.5h-26v-38h4v34H53.9z"/>
	<path fill="#0A1420" d="M76,145.5h2.8l14.4,38.2l-3.7,1.3l-3.7-9.7H69.1l-3.4,9h-3.9v-4H63L76,145.5z M70.6,171.5h13.8l-6.9-18.3
		L70.6,171.5z"/>
	<path fill="#0A1420" d="M90.9,150.5v-4h3.9l12.1,31.5l12.6-32.2l3.7,1.4l-14.9,38.2h-2.8L92,150.5H90.9z"/>
	<path fill="#0A1420" d="M131.9,150.5v14h10v4h-10v12h17.9V179h4v5.5h-26v-33.9h-1.5v-4h25.4v5.5h-4v-1.5H131.9z"/>
	<path fill="#0A1420" d="M192.8,146.5c10.5,0,19,8.5,19,19s-8.4,19-19,19h-13v-33.9h-1.5v-4H192.8z M192.8,180.5
		c8.3,0,14.9-6.7,14.9-15c0-8.3-6.7-15-14.9-15h-9v30H192.8z"/>
	<path fill="#0A1420" d="M217.6,184.5v-38h4v38H217.6z"/>
	<path fill="#0A1420" d="M251.6,166.5h10v17.9h-4v-2.9c-3.2,2.4-6.9,3.9-10.5,3.9c-10,0-19.5-8.6-19.5-20c0-11,8.9-20,20-20
		c4.3,0,8.3,1.3,11.6,3.7l0.4,0.3v3.5h-4v-1.4c-2.3-1.3-5.1-2.1-8-2.1c-8.8,0-16,7.2-16,16c0,8.8,7.2,15.9,16,15.9
		c3.5,0,7.4-1.6,10-4.1v-6.8h-6V166.5z"/>
	<path fill="#0A1420" d="M267.5,184.5v-38h4v38H267.5z"/>
	<path fill="#0A1420" d="M309.5,146.5v5.5h-4v-1.5h-10v33.9h-4v-33.9h-10v1.5h-4v-5.5H309.5z"/>
	<path fill="#0A1420" d="M323.6,145.5h2.8l14.4,38.2l-3.7,1.3l-3.7-9.7h-16.7l-3.4,9h-3.9v-4h1.1L323.6,145.5z M318.1,171.5h13.8
		l-6.9-18.3L318.1,171.5z"/>
	<path fill="#0A1420" d="M367.3,180.5V179h4v5.5h-26v-38h4v34H367.3z"/>
</g>
</svg>
