<?xml version="1.0" encoding="utf-8"?>
<!-- Generator: Adobe Illustrator 18.0.0, SVG Export Plug-In . SVG Version: 6.00 Build 0)  -->
<!DOCTYPE svg PUBLIC "-//W3C//DTD SVG 1.1//EN" "http://www.w3.org/Graphics/SVG/1.1/DTD/svg11.dtd">
<svg version="1.1" id="Capa_1" xmlns="http://www.w3.org/2000/svg" xmlns:xlink="http://www.w3.org/1999/xlink" x="0px" y="0px"
	 viewBox="0 0 725 442" enable-background="new 0 0 725 442" xml:space="preserve">
<path fill="none" d="M242,359.5L242,359.5c0-2.9-2.2-5.3-5-5.8v0C239.8,354.2,242,356.6,242,359.5z"/>
<path fill="none" d="M237,365.3L237,365.3c2.6-0.4,4.7-2.6,4.9-5.2C241.7,362.8,239.6,364.9,237,365.3z"/>
<path fill="none" d="M273.8,266.3c-0.6-0.2-1.1-0.3-1.7-0.3c-1.6,0-3.1,0.7-4.2,1.7c-0.1,0.1-0.3,0.3-0.4,0.4
	c-0.2,0.2-0.3,0.4-0.4,0.6c-0.1,0.2-0.2,0.3-0.3,0.5c-0.4,0.8-0.6,1.7-0.6,2.7c0,0.5,0.1,1.1,0.2,1.6c0.1,0.3,0.1,0.5,0.3,0.7
	c0,0,0,0.1,0.1,0.1c0.5,1,1.2,1.9,2.1,2.5c0.9,0.6,2,1,3.2,1c3.3,0,5.9-2.7,5.9-5.9c0-1.2-0.4-2.3-1-3.2
	C276.2,267.6,275.1,266.7,273.8,266.3z"/>
<path fill="#E55947" d="M280.3,270.2c-0.8-3.8-4.2-6.7-8.3-6.7c-4.6,0-8.4,3.8-8.4,8.4c0,0.8,0,1.5,0.2,2.2
	c-5.9,6.7-11,13.9-15.4,21.7c-0.4,0.8-0.9,1.6-1.3,2.4c-0.1,0.2-0.2,0.4-0.3,0.6c-3.9,7.3-7.2,15.1-9.9,23.2v-0.2c0,0.2,0,0.3,0,0.5
	c-0.3,1-0.6,1.9-0.9,3c-5.1,14-24.9,30.7-50.1,30.7h-3.4c-6.1,0-20.5-3.1-26.4-16.8c-3.3-12.8-10-24.8-20.1-34.8
	c-30-29.8-78.5-29.6-108.3,0.4c-29.8,30-29.7,78.5,0.3,108.3c30,29.8,78.5,29.7,108.3-0.3c8.7-8.7,14.5-19.1,18.5-30v0.1
	c5-16.9,21.1-20.9,27.7-20.9h3.4c23.6,0,42.5,15,49,28h0.4h1.8h7.3c-2-7.5-3.4-15.3-3.9-23.4c-1.3,0.8-2.8,1.3-4.4,1.3
	c-4.6,0-8.4-3.7-8.4-8.4c0-4.6,3.7-8.4,8.4-8.4c1.7,0,3.2,0.5,4.6,1.3c1.5-27.7,12.5-52.8,29.7-72.3c0.5,0.1,1.1,0.2,1.7,0.2
	c4.6,0,8.4-3.8,8.4-8.4C280.5,271.3,280.4,270.8,280.3,270.2z M272.1,277.8c-1.2,0-2.3-0.4-3.2-1c-0.9-0.6-1.7-1.5-2.1-2.5
	c0,0,0-0.1-0.1-0.1c-0.1-0.2-0.2-0.5-0.3-0.7c-0.1-0.5-0.2-1-0.2-1.6c0-1,0.2-1.9,0.6-2.7c0.1-0.2,0.2-0.3,0.3-0.5
	c0.1-0.2,0.3-0.4,0.4-0.6c0.1-0.1,0.2-0.3,0.4-0.4c1.1-1.1,2.5-1.7,4.2-1.7c0.6,0,1.2,0.1,1.7,0.3c1.3,0.4,2.4,1.3,3.2,2.4
	c0.6,0.9,1,2,1,3.2C277.9,275.2,275.3,277.8,272.1,277.8z"/>
<path fill="#E55947" d="M236.1,365.4c-1.4,0-2.7-0.5-3.7-1.3C233.4,364.9,234.7,365.4,236.1,365.4c0.3,0,0.6,0,0.9-0.1v0
	C236.7,365.4,236.4,365.4,236.1,365.4z"/>
<path fill="#E55947" d="M230.2,359.5L230.2,359.5c0-3.3,2.6-5.9,5.9-5.9c0.3,0,0.6,0,0.9,0.1v0c-0.3,0-0.6-0.1-0.9-0.1
	C232.8,353.7,230.2,356.3,230.2,359.5z"/>
<path fill="#EA5B0C" d="M227.7,359.6c0,4.6,3.8,8.4,8.4,8.4c1.6,0,3.2-0.5,4.4-1.3c2.4-1.5,4-4.1,3.9-7.1c0-3-1.6-5.6-3.9-7.1
	c-1.3-0.8-2.9-1.3-4.6-1.3C231.4,351.1,227.7,354.9,227.7,359.6z M237,353.7c2.8,0.4,5,2.9,5,5.8v0v0c0,0.2,0,0.4,0,0.6
	c-0.3,2.7-2.3,4.8-4.9,5.2c-0.3,0-0.6,0.1-0.9,0.1c-1.4,0-2.7-0.5-3.7-1.3c-0.1-0.1-0.3-0.2-0.4-0.4c-1.1-1.1-1.7-2.5-1.7-4.2v0v0
	c0-3.3,2.6-5.9,5.9-5.9C236.4,353.6,236.7,353.7,237,353.7z"/>
<path fill="none" d="M277,268.7c0.6,0.9,1,2,1,3.2c0,3.3-2.6,5.9-5.9,5.9c-1.2,0-2.3-0.4-3.2-1v0c0.9,0.6,2,1,3.2,1
	c3.3,0,5.9-2.7,5.9-5.9C277.9,270.7,277.6,269.6,277,268.7L277,268.7z"/>
<path fill="#FCC436" d="M266.7,274.4c0.5,1,1.2,1.9,2.1,2.5v0C267.9,276.3,267.1,275.4,266.7,274.4z"/>
<path fill="none" d="M365.1,237.2c0-0.1,0-0.1,0-0.2l0,0C365.1,237.1,365.1,237.1,365.1,237.2z"/>
<path fill="none" d="M354,237.8C354,237.8,354,237.7,354,237.8C354,237.7,354,237.8,354,237.8z"/>
<path fill="none" d="M359.4,241.3c-2.1,0-4-1.1-5-2.8C355.4,240.2,357.3,241.3,359.4,241.3c2,0,3.8-1,4.9-2.6
	C363.3,240.3,361.5,241.3,359.4,241.3z"/>
<path fill="#9E78B5" d="M360.6,229.7c0.1,0,0.1,0,0.2,0C360.7,229.7,360.6,229.7,360.6,229.7z"/>
<path fill="none" d="M447,277.3c-3.3,0-5.9-2.6-5.9-5.9c0-1.2,0.4-2.3,1-3.2l0,0c-0.6,0.9-1,2-1,3.2
	C441.1,274.7,443.8,277.3,447,277.3c0.2,0,0.4,0,0.6,0C447.4,277.3,447.2,277.3,447,277.3z"/>
<path fill="#36A8E0" d="M446,265.6c-1.7,0.3-3.1,1.2-4,2.6l0,0C443,266.9,444.4,265.9,446,265.6z"/>
<path fill="#36A8E0" d="M452.6,269.7c-0.7-2.2-2.7-3.9-5-4.1C450,265.8,451.9,267.5,452.6,269.7z"/>
<path fill="#9E78B5" d="M455.4,271.4c0-4.6-3.8-8.4-8.4-8.4c-0.8,0-1.5,0.1-2.2,0.3c-6.4-5.7-13.4-10.7-20.9-15.1
	c-10.1-5.8-21-10.3-32.5-13.3c-13.5-6.5-28.4-25.6-28.4-49.5v-3.4c0-6.6,3.5-23.1,20.5-28.1h-0.5c11.1-3,21.5-9.7,30.3-18.6
	c29.8-30,29.7-78.4-0.3-108.2c-30-29.8-78.5-29.6-108.3,0.4c-29.8,30-29.7,78.5,0.3,108.3c10.2,10.1,22.6,16.8,35.6,20
	c13.3,6.1,16.5,20.2,16.5,26.2v3.4c0,24-15.3,43.1-28.9,49.5c7.7-2,15.8-3.2,24-3.7c1.4-2.5,4.2-4.2,7.3-4.2c4.6,0,8.4,3.7,8.4,8.4
	c0,1.7-0.5,3.3-1.4,4.6c27.7,1.5,52.8,12.5,72.3,29.7c-0.1,0.5-0.2,1.1-0.2,1.7c0,4.7,3.8,8.4,8.4,8.4c0.6,0,1.1-0.1,1.7-0.2
	C452.6,278.9,455.4,275.5,455.4,271.4z M447,277.3c-3.3,0-5.9-2.6-5.9-5.9c0-1.2,0.4-2.3,1-3.2c0.9-1.3,2.3-2.3,4-2.6
	c0.3-0.1,0.6-0.1,0.9-0.1c0.2,0,0.4,0,0.6,0c2.4,0.2,4.3,1.9,5,4.1c0.2,0.6,0.3,1.1,0.3,1.7c0,3.1-2.3,5.6-5.3,5.9
	C447.4,277.3,447.2,277.3,447,277.3z"/>
<path fill="#9E78B5" d="M360.5,229.7c-0.4-0.1-0.7-0.1-1.1-0.1c-0.8,0-1.6,0.2-2.3,0.5c0.7-0.3,1.5-0.5,2.3-0.5
	C359.8,229.6,360.2,229.6,360.5,229.7z"/>
<path fill="#9E78B5" d="M365.2,236.6c0.1-0.4,0.1-0.8,0.1-1.2c0-1.5-0.6-2.9-1.5-3.9c0.9,1,1.5,2.4,1.5,3.9
	C365.3,235.8,365.3,236.2,365.2,236.6z"/>
<path fill="#9E78B5" d="M365.1,237c0-0.1,0.1-0.2,0.1-0.3C365.2,236.8,365.1,236.9,365.1,237L365.1,237z"/>
<path fill="#FCC436" d="M359.4,227c-3.1,0-5.8,1.7-7.3,4.2c-8.2,0.5-16.3,1.8-24,3.7c-11.6,2.9-22.5,7.4-32.5,13.3
	c-13.7,5.9-39,3.5-56.5-14l-2.4-2.4c-4.7-4.7-13.7-19-5-34.3l-0.4,0.4c5.3-10.4,8.2-22.2,8.2-34.7c-0.1-42.3-34.5-76.5-76.8-76.4
	c-42.3,0.1-76.5,34.5-76.4,76.8c0.1,42.3,34.5,76.5,76.8,76.4c14.4,0,27.8-4,39.3-11c13.7-5.1,25.9,2.7,30.1,6.9l2.4,2.4
	c17.9,17.9,20,43.9,13.6,57.5c4.4-7.8,9.5-15.1,15.4-21.7c-0.2-0.7-0.2-1.4-0.2-2.2c0-4.6,3.7-8.4,8.4-8.4c4.1,0,7.5,2.9,8.3,6.7
	c19.4-17.3,44.5-28.4,72.1-30.1c1.5,2.3,4.1,3.8,7,3.8c2.9,0,5.5-1.5,7-3.8c0.9-1.3,1.4-2.9,1.4-4.6C367.8,230.8,364,227,359.4,227z
	 M359.4,241.3c-2.1,0-4-1.1-5-2.8c-0.1-0.2-0.3-0.5-0.4-0.7c0,0,0-0.1,0-0.1c-0.3-0.7-0.4-1.4-0.4-2.2c0-2.4,1.5-4.5,3.6-5.4
	c0.7-0.3,1.5-0.5,2.3-0.5c0.4,0,0.8,0,1.1,0.1c0,0,0,0,0.1,0c0.1,0,0.1,0,0.2,0c1.2,0.3,2.2,0.9,3,1.8c0.9,1,1.5,2.4,1.5,3.9
	c0,0.4,0,0.8-0.1,1.2c0,0,0,0,0,0c0,0.1-0.1,0.2-0.1,0.3c0,0.1,0,0.1,0,0.2c-0.2,0.6-0.4,1.1-0.7,1.5
	C363.3,240.3,361.5,241.3,359.4,241.3z"/>
<path fill="#FCC436" d="M277,268.7L277,268.7c-0.7-1.1-1.9-2-3.2-2.4C275.1,266.7,276.2,267.6,277,268.7z"/>
<path fill="#FCC436" d="M246.7,299l0.2-0.2c0.1-0.2,0.2-0.4,0.3-0.6C247,298.5,246.9,298.8,246.7,299z"/>
<path fill="#FCC436" d="M266.8,269.3c0.1-0.2,0.2-0.3,0.3-0.5C267,269,266.9,269.1,266.8,269.3z"/>
<path fill="#FCC436" d="M266.6,274.3c-0.1-0.2-0.2-0.5-0.3-0.7C266.5,273.8,266.5,274,266.6,274.3z"/>
<path fill="#FCC436" d="M267.5,268.2c0.1-0.1,0.2-0.3,0.4-0.4C267.7,267.9,267.6,268.1,267.5,268.2z"/>
<path fill="none" d="M482.3,353L482.3,353c-2.7,0.6-4.7,2.9-4.7,5.8c0,1.1,0.3,2.1,0.8,3c-0.5-0.9-0.8-1.9-0.8-3
	C477.6,356,479.6,353.6,482.3,353z"/>
<path fill="#29B59E" d="M487.7,354.6C487.7,354.6,487.7,354.7,487.7,354.6C487.7,354.7,487.7,354.6,487.7,354.6z"/>
<path fill="#29B59E" d="M691.4,304.5c-30-29.8-78.5-29.7-108.3,0.3c-9.8,9.9-16.4,21.6-19.7,34.2c-5.9,13.9-20.4,17-26.5,17h-3.4
	c-24.9,0-44.5-16.2-50-30.2c2.2,8.3,3.6,16.8,4.2,25.7c2.5,1.4,4.2,4.2,4.2,7.3c0,4.6-3.7,8.4-8.4,8.4c-1.7,0-3.3-0.5-4.7-1.4
	c-0.5,8.4-1.8,16.7-3.9,24.2h9.1h0h0.4c6.5-13,25.4-28,49.1-28h3.4c6.4,0,22,3.6,27.3,19.1c0,0.1,0.3,0.3,0.3,0.5
	c0.1,0.4,0.6,0.9,0.6,1.3v-0.1c3,11.1,9.7,21.5,18.6,30.4c30,29.8,78.4,29.7,108.2-0.3C721.6,382.8,721.4,334.3,691.4,304.5z"/>
<path fill="#29B59E" d="M483.5,352.9c1.6,0,3.1,0.6,4.1,1.7C486.5,353.6,485.1,352.9,483.5,352.9c-0.4,0-0.8,0-1.2,0.1v0
	C482.7,353,483.1,352.9,483.5,352.9z"/>
<path fill="#29B59E" d="M485.5,364.4c2.1-0.7,3.7-2.7,3.9-5C489.1,361.7,487.6,363.6,485.5,364.4z"/>
<path fill="#36A8E0" d="M491.9,358.8c0-3.1-1.7-5.8-4.2-7.3c-0.5-8.8-1.9-17.4-4.2-25.7c-2.9-10.9-7.3-21.3-12.8-30.9
	c-5.9-13.7-3.5-39,14-56.6l2.4-2.4c4.7-4.7,19-13.6,34.3-5l-0.4-0.4c10.4,5.3,22.2,8.2,34.7,8.2c42.3-0.1,76.5-34.5,76.4-76.8
	c-0.1-42.3-34.5-76.5-76.8-76.4c-42.3,0.1-76.5,34.5-76.4,76.8c0,14.4,4,27.8,11,39.3c5.1,13.7-2.7,25.9-6.9,30.1l-2.4,2.4
	c-17.6,17.5-42.9,19.9-56.6,14c7.5,4.3,14.5,9.4,20.9,15.1c0.7-0.2,1.4-0.3,2.2-0.3c4.7,0,8.4,3.7,8.4,8.4c0,4.1-2.9,7.5-6.7,8.3
	c17.3,19.4,28.4,44.5,30.1,72.1c-2.3,1.5-3.8,4.1-3.8,7c0,2.9,1.5,5.5,3.8,7c1.3,0.9,2.9,1.4,4.7,1.4
	C488.2,367.2,491.9,363.4,491.9,358.8z M478.4,361.8c-0.5-0.9-0.8-1.9-0.8-3c0-2.8,2-5.2,4.7-5.8c0.4-0.1,0.8-0.1,1.2-0.1
	c1.6,0,3.1,0.6,4.1,1.7c0,0,0,0,0,0c0,0,0,0,0,0c1,1.1,1.7,2.5,1.7,4.1c0,0.2,0,0.4,0,0.6c-0.2,2.3-1.8,4.2-3.9,5
	c-0.6,0.2-1.3,0.3-1.9,0.3C481.4,364.7,479.5,363.5,478.4,361.8z"/>
<g>
	<path fill="#29B59E" d="M408.2,359.4c0,2.1-1.7,3.8-3.8,3.8c-2.1,0-3.8-1.7-3.8-3.8c0-2.1,1.7-3.8,3.8-3.8
		C406.5,355.6,408.2,357.3,408.2,359.4"/>
	<path fill="#29B59E" d="M423.3,359.4c0,2.1-1.7,3.8-3.8,3.8c-2.1,0-3.8-1.7-3.8-3.8c0-2.1,1.7-3.8,3.8-3.8
		C421.6,355.6,423.3,357.3,423.3,359.4"/>
	<path fill="#29B59E" d="M438.4,359.4c0,2.1-1.7,3.8-3.8,3.8c-2.1,0-3.8-1.7-3.8-3.8c0-2.1,1.7-3.8,3.8-3.8
		C436.7,355.6,438.4,357.3,438.4,359.4"/>
	<path fill="#29B59E" d="M453.4,359.4c0,2.1-1.7,3.8-3.8,3.8s-3.8-1.7-3.8-3.8c0-2.1,1.7-3.8,3.8-3.8S453.4,357.3,453.4,359.4"/>
	<path fill="#29B59E" d="M468.5,359.4c0,2.1-1.7,3.8-3.8,3.8c-2.1,0-3.8-1.7-3.8-3.8c0-2.1,1.7-3.8,3.8-3.8
		C466.8,355.6,468.5,357.3,468.5,359.4"/>
</g>
<g>
	<path fill="#E55947" d="M257.9,359.4c0,2.1-1.7,3.8-3.8,3.8c-2.1,0-3.8-1.7-3.8-3.8c0-2.1,1.7-3.8,3.8-3.8
		C256.2,355.6,257.9,357.3,257.9,359.4"/>
	<path fill="#E55947" d="M273,359.4c0,2.1-1.7,3.8-3.8,3.8c-2.1,0-3.8-1.7-3.8-3.8c0-2.1,1.7-3.8,3.8-3.8
		C271.3,355.6,273,357.3,273,359.4"/>
	<path fill="#E55947" d="M288.1,359.4c0,2.1-1.7,3.8-3.8,3.8c-2.1,0-3.8-1.7-3.8-3.8c0-2.1,1.7-3.8,3.8-3.8
		C286.4,355.6,288.1,357.3,288.1,359.4"/>
	<path fill="#E55947" d="M303.2,359.4c0,2.1-1.7,3.8-3.8,3.8c-2.1,0-3.8-1.7-3.8-3.8c0-2.1,1.7-3.8,3.8-3.8
		C301.5,355.6,303.2,357.3,303.2,359.4"/>
	<path fill="#E55947" d="M318.2,359.4c0,2.1-1.7,3.8-3.8,3.8c-2.1,0-3.8-1.7-3.8-3.8c0-2.1,1.7-3.8,3.8-3.8
		C316.5,355.6,318.2,357.3,318.2,359.4"/>
</g>
<g>
	<path fill="#36A8E0" d="M393.9,324.9c1.5,1.5,1.5,3.9,0,5.3c-1.5,1.5-3.9,1.5-5.4,0c-1.5-1.5-1.5-3.9,0-5.3
		C390.1,323.5,392.5,323.5,393.9,324.9"/>
	<path fill="#36A8E0" d="M404.6,314.3c1.5,1.5,1.5,3.9,0,5.4c-1.5,1.5-3.9,1.5-5.4,0c-1.5-1.5-1.5-3.9,0-5.4
		C400.7,312.8,403.1,312.8,404.6,314.3"/>
	<path fill="#36A8E0" d="M415.3,303.6c1.5,1.5,1.5,3.9,0,5.4c-1.5,1.5-3.9,1.5-5.4,0c-1.5-1.5-1.5-3.9,0-5.4
		C411.4,302.2,413.8,302.1,415.3,303.6"/>
	<path fill="#36A8E0" d="M425.9,293c1.5,1.5,1.5,3.9,0,5.3c-1.5,1.5-3.9,1.5-5.3,0c-1.5-1.5-1.5-3.9,0-5.3
		C422,291.5,424.4,291.5,425.9,293"/>
	<path fill="#36A8E0" d="M436.6,282.3c1.5,1.5,1.5,3.9,0,5.3c-1.5,1.5-3.9,1.5-5.4,0c-1.5-1.5-1.5-3.9,0-5.3
		C432.7,280.8,435.1,280.8,436.6,282.3"/>
</g>
<g>
	<path fill="#9E78B5" d="M359.5,310.7c2.1,0,3.8,1.7,3.8,3.8c0,2.1-1.7,3.8-3.8,3.8c-2.1,0-3.8-1.7-3.8-3.8
		C355.7,312.4,357.4,310.7,359.5,310.7"/>
	<path fill="#9E78B5" d="M359.4,295.6c2.1,0,3.8,1.7,3.8,3.8c0,2.1-1.7,3.8-3.8,3.8c-2.1,0-3.8-1.7-3.8-3.8
		C355.7,297.3,357.4,295.6,359.4,295.6"/>
	<path fill="#9E78B5" d="M359.4,280.5c2.1,0,3.8,1.7,3.8,3.8c0,2.1-1.7,3.8-3.8,3.8c-2.1,0-3.8-1.7-3.8-3.8
		C355.7,282.2,357.4,280.5,359.4,280.5"/>
	<path fill="#9E78B5" d="M359.4,265.4c2.1,0,3.8,1.7,3.8,3.8c0,2.1-1.7,3.8-3.8,3.8c-2.1,0-3.8-1.7-3.8-3.8
		C355.7,267.1,357.4,265.4,359.4,265.4"/>
	<path fill="#9E78B5" d="M359.5,250.4c2.1,0,3.8,1.7,3.8,3.8c0,2.1-1.7,3.8-3.8,3.8c-2.1,0-3.8-1.7-3.8-3.8
		C355.7,252.1,357.4,250.4,359.5,250.4"/>
</g>
<g>
	<path fill="#FCC436" d="M325,324.9c1.5-1.5,3.9-1.5,5.4,0c1.5,1.5,1.5,3.9,0,5.3c-1.5,1.5-3.9,1.5-5.3,0
		C323.5,328.8,323.5,326.4,325,324.9"/>
	<path fill="#FCC436" d="M314.3,314.3c1.5-1.5,3.9-1.5,5.4,0c1.5,1.5,1.5,3.9,0,5.4c-1.5,1.5-3.9,1.5-5.4,0
		C312.8,318.2,312.8,315.8,314.3,314.3"/>
	<path fill="#FCC436" d="M303.6,303.6c1.5-1.5,3.9-1.5,5.4,0c1.5,1.5,1.5,3.9,0,5.4c-1.5,1.5-3.9,1.5-5.4,0
		C302.2,307.5,302.2,305.1,303.6,303.6"/>
	<path fill="#FCC436" d="M293,293c1.5-1.5,3.9-1.5,5.3,0c1.5,1.5,1.5,3.9,0,5.3c-1.5,1.5-3.9,1.5-5.3,0
		C291.5,296.8,291.5,294.4,293,293"/>
	<path fill="#FCC436" d="M282.3,282.3c1.5-1.5,3.9-1.5,5.3,0c1.5,1.5,1.5,3.9,0,5.3c-1.5,1.5-3.9,1.5-5.3,0
		C280.8,286.2,280.8,283.8,282.3,282.3"/>
</g>
<g>
	<path fill="#29B59E" d="M444.7,288.5c-0.5-0.1-1-0.2-1.5-0.3l-46.5,46.6c3.1,4.7,5.4,10,6.6,15.6l65.4-0.4c0.3-0.6,0.7-1.1,1.1-1.6
		C467.6,326.2,459,305.6,444.7,288.5"/>
	<path fill="#F7A891" d="M384.3,322.5l46.2-46.3c-0.2-0.7-0.4-1.5-0.5-2.3c-17.3-14.2-37.9-22.7-60.2-24.7c-0.4,0.3-0.8,0.6-1.3,0.9
		v65.9C374.3,317.1,379.6,319.3,384.3,322.5"/>
	<path fill="#61ABBD" d="M351,315.9v-65.5c-0.7-0.4-1.3-0.8-1.9-1.3c-22.2,2.1-42.8,10.7-60,25.1c-0.1,0.8-0.3,1.5-0.5,2.3
		l46.4,46.1C339.8,319.4,345.2,317.1,351,315.9"/>
	<path fill="#ABABAB" d="M322.7,335L276,288.7c-0.5,0.1-1,0.2-1.5,0.3c-14.2,17.2-22.7,37.9-24.7,60.1c0.4,0.6,0.8,1.2,1.2,1.8
		l65.3-0.1C317.3,345.1,319.6,339.7,322.7,335"/>
</g>
<path fill="#F0CCA6" d="M401,865.3h55.1c-1.4-3.1-3.1-6.8-4.8-10.6c0,0,0,0,0,0c-3.5-8.7-18-35.4-17.7-53.2c0-1,0-1.9,0-2.9
	c1.3-10.4,1.2-23.6-0.3-35c-2-15.1-10.6-18.9-17-21.4L373,728.9l-5.4-40.6c-0.7-5.5-5.8-9.4-11.3-8.7c-5.5,0.7-9.4,5.8-8.7,11.3
	l8.3,62.5c0.7,11.7,3.2,26.3-2.1,22.3c-8.1-6.2-21.5-9.7-32.1-8.3c-10.5,1.4-20.9,13.8-7.5,17.4c9.7,2.6,24.5,10.9,35.3,20.1
	c4.9,8.7,7.2,14,21.1,22.1C387.8,830.2,397.9,856.1,401,865.3"/>
<path fill="#E5BF9C" d="M451.3,854.7C451.3,854.7,451.3,854.7,451.3,854.7c-3.5-8.7-18-35.4-17.8-53.2c0-1,0-1.9,0-2.9
	c1.3-10.4,1.2-23.6-0.3-35c-2-15.1-10.6-18.9-17-21.4L373,728.9l1.6,6.8c0,0,50.8,7.6,54.1,30.1l0,0c1.3,10.9,1.2,23.1,0,32.9
	c0,0.9,0,1.9,0,2.9c-0.1,7,0,9,2.9,17.1c4.5,12.5-15.4,17.1-45.2,18.8c0,0,5.2,12.4,5.2,12.4c1.7,3.8,58.2,12.3,59.6,15.4h4.8
	C454.7,862.2,453,858.5,451.3,854.7"/>
<path fill="#E5BF9C" d="M326.6,771.1c10.5-1.4,23.4,7.2,31.6,13.4c5.3,4,3.4-15.8,2.6-27.5l-8.3-62.5c-0.7-5.5,3.1-10.6,8.7-11.3
	c1.6-0.2,3.2,0,4.7,0.5c-2.1-2.9-5.7-4.6-9.5-4.1c-5.5,0.7-9.4,5.8-8.7,11.3l8.3,62.5c0.7,11.7,3.2,26.3-2.1,22.3
	c-8.1-6.2-21.5-9.7-32.1-8.3c-10.2,1.4-20.3,13.1-8.6,17.1C307.9,779.7,318.7,772.1,326.6,771.1"/>
<path fill="#FFFFFF" d="M123.7,400.1c-10.6,10.6-25.2,17.2-41.4,17.3c-16.2,0-30.8-6.5-41.5-17c-10.6-10.6-17.2-25.2-17.3-41.4
	c0-16.2,6.5-30.8,17-41.5c10.6-10.6,25.2-17.2,41.4-17.3c16.2,0,30.8,6.5,41.5,17c10.6,10.6,17.2,25.2,17.3,41.4
	C140.8,374.8,134.3,389.4,123.7,400.1"/>
<g>
	<defs>
		<rect id="SVGID_1_" x="31.5" y="334.8" width="101.4" height="48"/>
	</defs>
	<clipPath id="SVGID_2_">
		<use xlink:href="#SVGID_1_"  overflow="visible"/>
	</clipPath>
	<g clip-path="url(#SVGID_2_)">
		<defs>
			<rect id="SVGID_3_" x="31.5" y="334" width="102.1" height="49.4"/>
		</defs>
		<clipPath id="SVGID_4_">
			<use xlink:href="#SVGID_3_"  overflow="visible"/>
		</clipPath>
		<g clip-path="url(#SVGID_4_)">
			
				<image overflow="visible" width="590" height="286" xlink:href="A47CA8F7.jpg"  transform="matrix(0.173 0 0 0.1728 31.4944 334.0362)">
			</image>
		</g>
	</g>
</g>
<g>
	<path fill="#FFFFFF" d="M204.5,204.8c-11.4,11.5-26.4,17.2-41.4,17.3c-15,0-30-5.6-41.5-17c-11.5-11.4-17.2-26.4-17.3-41.4
		c0-15,5.6-30,17-41.5c11.4-11.5,26.4-17.2,41.4-17.3c15,0,30,5.6,41.5,17c11.5,11.4,17.2,26.4,17.3,41.4
		C221.5,178.3,215.9,193.3,204.5,204.8"/>
</g>
<g>
	<defs>
		<rect id="SVGID_5_" x="117.6" y="115.4" width="90.6" height="96.1"/>
	</defs>
	<clipPath id="SVGID_6_">
		<use xlink:href="#SVGID_5_"  overflow="visible"/>
	</clipPath>
	<g clip-path="url(#SVGID_6_)">
		<defs>
			<rect id="SVGID_7_" x="117.6" y="115.4" width="90.6" height="96.1"/>
		</defs>
		<clipPath id="SVGID_8_">
			<use xlink:href="#SVGID_7_"  overflow="visible"/>
		</clipPath>
		<g transform="matrix(1 0 0 1 0 7.629395e-006)" clip-path="url(#SVGID_8_)">
			
				<image overflow="visible" width="282" height="299" xlink:href="A47CA8F5.png"  transform="matrix(0.3214 0 0 0.3214 117.6178 115.408)">
			</image>
		</g>
	</g>
</g>
<g>
	<path fill="#FFFFFF" d="M400.5,122.7c-10.6,10.6-25.2,17.2-41.4,17.3c-16.2,0-30.8-6.5-41.5-17c-10.6-10.6-17.2-25.2-17.3-41.4
		c0-16.2,6.5-30.8,17-41.5c10.6-10.6,25.2-17.2,41.4-17.3c16.2,0,30.8,6.5,41.5,17c10.6,10.6,17.2,25.2,17.3,41.4
		C417.6,97.4,411.1,112.1,400.5,122.7"/>
</g>
<g>
	<defs>
		<rect id="SVGID_9_" x="310.9" y="33.3" width="96.2" height="96.2"/>
	</defs>
	<clipPath id="SVGID_10_">
		<use xlink:href="#SVGID_9_"  overflow="visible"/>
	</clipPath>
	<g clip-path="url(#SVGID_10_)">
		<defs>
			<rect id="SVGID_11_" x="310.9" y="33.3" width="96.2" height="96.2"/>
		</defs>
		<clipPath id="SVGID_12_">
			<use xlink:href="#SVGID_11_"  overflow="visible"/>
		</clipPath>
		<g clip-path="url(#SVGID_12_)">
			
				<image overflow="visible" width="472" height="472" xlink:href="A47CA8F2.png"  transform="matrix(0.2038 0 0 0.2038 310.8841 33.3383)">
			</image>
		</g>
	</g>
</g>
<g>
	<path fill="#FFFFFF" d="M556,220.9c-15,0-30-5.6-41.5-17c-11.5-11.4-17.2-26.4-17.3-41.4c0-15,5.6-30,17-41.5
		c11.4-11.4,26.2-17.2,41.1-17.3c15.1,0,30.2,5.6,41.7,17c11.5,11.4,17.2,26.4,17.3,41.4c0,15-5.6,30-17,41.5
		C586,215.1,571,220.8,556,220.9"/>
</g>
<rect x="516.5" y="119.9" fill="#FFFFFF" width="78.6" height="84.8"/>
<g>
	<defs>
		<rect id="SVGID_13_" x="516.5" y="119.9" width="78.6" height="84.8"/>
	</defs>
	<clipPath id="SVGID_14_">
		<use xlink:href="#SVGID_13_"  overflow="visible"/>
	</clipPath>
	<path clip-path="url(#SVGID_14_)" fill="#1D1D1B" d="M518.5,189.6h2.3v6.3c0,1,0,1.6,0.1,1.9c0.1,0.5,0.3,0.9,0.7,1.1
		c0.4,0.3,0.9,0.4,1.5,0.4c0.7,0,1.2-0.1,1.5-0.4c0.3-0.3,0.5-0.6,0.6-1c0.1-0.4,0.1-1.1,0.1-2v-6.4h2.3v6.1c0,1.4-0.1,2.4-0.2,3
		c-0.1,0.6-0.4,1.1-0.7,1.5c-0.3,0.4-0.8,0.7-1.4,0.9c-0.6,0.2-1.3,0.4-2.2,0.4c-1.1,0-1.9-0.1-2.5-0.4c-0.6-0.3-1-0.6-1.4-1
		c-0.3-0.4-0.5-0.8-0.7-1.3c-0.2-0.7-0.2-1.6-0.2-2.9V189.6"/>
	<polygon clip-path="url(#SVGID_14_)" fill="#1D1D1B" points="531.8,201.3 531.8,189.6 534,189.6 538.8,197.4 538.8,189.6 
		541,189.6 541,201.3 538.6,201.3 533.9,193.6 533.9,201.3 	"/>
	<polygon clip-path="url(#SVGID_14_)" fill="#1D1D1B" points="545.1,201.3 545.1,189.6 553.6,189.6 553.6,191.6 547.4,191.6 
		547.4,194.2 553.2,194.2 553.2,196.2 547.4,196.2 547.4,199.3 553.8,199.3 553.8,201.3 	"/>
	<path clip-path="url(#SVGID_14_)" fill="#1D1D1B" d="M556.8,197.5l2.3-0.2c0.1,0.8,0.4,1.3,0.8,1.7c0.4,0.4,1,0.5,1.7,0.5
		c0.7,0,1.3-0.2,1.7-0.5c0.4-0.3,0.6-0.7,0.6-1.1c0-0.3-0.1-0.5-0.2-0.7c-0.2-0.2-0.4-0.4-0.8-0.5c-0.3-0.1-0.9-0.3-1.9-0.5
		c-1.2-0.3-2.1-0.7-2.6-1.1c-0.7-0.6-1.1-1.4-1.1-2.3c0-0.6,0.2-1.1,0.5-1.7c0.3-0.5,0.8-0.9,1.4-1.2c0.6-0.3,1.4-0.4,2.3-0.4
		c1.4,0,2.5,0.3,3.3,1c0.7,0.6,1.1,1.5,1.2,2.6l-2.3,0.1c-0.1-0.6-0.3-1-0.6-1.3c-0.3-0.3-0.8-0.4-1.5-0.4c-0.7,0-1.2,0.1-1.6,0.4
		c-0.2,0.2-0.4,0.4-0.4,0.7c0,0.3,0.1,0.5,0.3,0.7c0.3,0.2,1,0.5,2.1,0.8c1.1,0.3,2,0.5,2.5,0.8c0.5,0.3,1,0.7,1.3,1.2
		c0.3,0.5,0.5,1.1,0.5,1.9c0,0.7-0.2,1.3-0.6,1.9c-0.4,0.6-0.9,1-1.6,1.3c-0.7,0.3-1.5,0.4-2.5,0.4c-1.5,0-2.6-0.3-3.4-1
		C557.4,199.8,557,198.8,556.8,197.5"/>
	<path clip-path="url(#SVGID_14_)" fill="#1D1D1B" d="M577.2,197l2.3,0.7c-0.3,1.3-0.9,2.2-1.7,2.8c-0.8,0.6-1.8,0.9-3.1,0.9
		c-1.5,0-2.8-0.5-3.8-1.6c-1-1.1-1.5-2.5-1.5-4.3c0-1.9,0.5-3.4,1.5-4.5c1-1.1,2.3-1.6,3.9-1.6c1.4,0,2.6,0.4,3.5,1.3
		c0.5,0.5,0.9,1.2,1.2,2.1l-2.3,0.5c-0.1-0.6-0.4-1.1-0.9-1.4c-0.4-0.3-1-0.5-1.6-0.5c-0.9,0-1.6,0.3-2.1,0.9
		c-0.5,0.6-0.8,1.6-0.8,3c0,1.5,0.3,2.5,0.8,3.1c0.5,0.6,1.2,0.9,2.1,0.9c0.6,0,1.2-0.2,1.6-0.6C576.7,198.4,577,197.8,577.2,197"/>
	<path clip-path="url(#SVGID_14_)" fill="#1D1D1B" d="M585,195.4c0,1.3,0.3,2.3,0.9,3c0.6,0.7,1.4,1,2.3,1c0.9,0,1.7-0.3,2.3-1
		c0.6-0.7,0.9-1.7,0.9-3c0-1.3-0.3-2.3-0.9-3c-0.6-0.7-1.4-1-2.3-1c-1,0-1.7,0.3-2.3,1C585.3,193.1,585,194.1,585,195.4
		 M582.6,195.5c0-1.2,0.2-2.2,0.5-3c0.3-0.6,0.6-1.1,1.1-1.6c0.5-0.5,1-0.8,1.5-1c0.7-0.3,1.6-0.5,2.5-0.5c1.7,0,3.1,0.5,4.1,1.6
		c1,1.1,1.5,2.5,1.5,4.4c0,1.9-0.5,3.3-1.5,4.4c-1,1.1-2.4,1.6-4.1,1.6c-1.7,0-3.1-0.5-4.1-1.6C583.1,198.8,582.6,197.4,582.6,195.5
		"/>
	<path clip-path="url(#SVGID_14_)" fill="#1D1D1B" d="M582.4,167.5c0,0-0.1,0.8-0.9,0.8c-0.8,0-0.8-0.8-0.8-0.8V146c0,0,0.1-1,0.8-1
		c0.7,0,0.8,0.8,0.8,0.8V167.5 M581.5,142.7c-3,0-3.2,2.1-3.2,2.1v23.8c0,0-0.1,2.2,3.2,2.2c3.3,0,3.3-2.8,3.3-2.8v-23
		C584.8,145,584.4,142.7,581.5,142.7"/>
	<path clip-path="url(#SVGID_14_)" fill="#1D1D1B" d="M572,151.2h2.6v-6.4c0,0-0.5-2.1-3.2-2.1c-2.7,0-3.2,2.3-3.2,2.3v23.4
		c0,0,0.3,2.5,2.7,2.5c3,0,3.4-2.7,3.4-2.7v-7h-2.4v6.3c0,0-0.1,1-0.9,1c-0.8,0-0.7-0.9-0.7-0.9v-21.8c0,0,0-0.8,0.8-0.8
		s0.9,0.7,0.9,0.7L572,151.2"/>
	<path clip-path="url(#SVGID_14_)" fill="#1D1D1B" d="M561.8,151.3h2.4v-6.6c0,0-0.3-2-3-2c-2.7,0-3.2,2.1-3.2,2.1v6.8
		c0,0,1,3.6,1.8,5.5c0.8,2,1.8,4.8,1.8,4.8v6c0,0,0.1,0.6-0.7,0.6c-0.8,0-0.8-0.8-0.8-0.8v-6.6h-2.2v7.7c0,0,0.5,2.1,3,2.1
		c2.5,0,3.1-2.2,3.1-2.2v-7.1c0,0-1.2-3.8-2.2-6.1c-1-2.3-1.5-4.4-1.5-4.4v-5.6c0,0,0.3-0.5,0.8-0.5c0.5,0,0.7,0.7,0.7,0.7V151.3"/>
	<polygon clip-path="url(#SVGID_14_)" fill="#1D1D1B" points="553.8,142.7 553.8,145 550.1,145 550.1,155.2 552.6,155.2 
		552.6,157.8 549.9,157.8 549.9,168.3 553.5,168.3 553.5,170.7 547.5,170.7 547.5,142.7 	"/>
	<polygon clip-path="url(#SVGID_14_)" fill="#1D1D1B" points="537.3,142.7 537.3,170.8 539.1,170.8 539.1,160.9 541.3,170.8 
		543.3,170.8 543.3,142.7 541.2,142.7 541.2,151.8 539.3,142.7 	"/>
	<path clip-path="url(#SVGID_14_)" fill="#1D1D1B" d="M526.9,142.7h2.5v24.8c0,0,0.1,0.8,0.7,0.8c0.6,0,0.7-0.7,0.7-0.7v-24.9h2.5
		v25.5c0,0-0.1,2.5-3.3,2.5c-3.2,0-3-2.6-3-2.6L526.9,142.7"/>
	<polygon clip-path="url(#SVGID_14_)" fill="#1D1D1B" points="529,136.1 524.9,136.1 524.9,134.3 556.1,122.4 587,134.2 587,136.1 
		582.9,136.1 556.1,126.2 	"/>
	<polygon clip-path="url(#SVGID_14_)" fill="#1D1D1B" points="532,136.1 538.9,136.1 556.1,130.5 572.5,136.1 579.5,136.1 
		556.1,127.6 	"/>
	<polygon clip-path="url(#SVGID_14_)" fill="#1D1D1B" points="524.9,137.6 524.9,141.1 587,141.1 587,137.6 	"/>
	<polygon clip-path="url(#SVGID_14_)" fill="#1D1D1B" points="524.9,172.3 524.9,175.2 587,175.2 587,172.3 	"/>
	<polygon clip-path="url(#SVGID_14_)" fill="#1D1D1B" points="521.8,177.2 521.8,180.1 590.2,180.1 590.2,177.2 	"/>
	<polygon clip-path="url(#SVGID_14_)" fill="#1D1D1B" points="518.5,182.2 518.5,185.1 593.4,185.1 593.4,182.2 	"/>
</g>
<g>
	<path fill="#FFFFFF" d="M678.7,400.1c-10.6,10.6-25.2,17.2-41.4,17.3h0h0c-16.2,0-30.8-6.5-41.4-17c-10.6-10.6-17.2-25.2-17.3-41.4
		c0-16.2,6.5-30.8,17-41.5c10.6-10.6,25.2-17.2,41.4-17.3c16.2,0,30.8,6.5,41.5,17c10.6,10.6,17.2,25.2,17.3,41.4
		C695.8,374.8,689.3,389.5,678.7,400.1"/>
</g>
<g>
	<defs>
		<rect id="SVGID_15_" x="598.5" y="320.1" width="77.4" height="77.4"/>
	</defs>
	<clipPath id="SVGID_16_">
		<use xlink:href="#SVGID_15_"  overflow="visible"/>
	</clipPath>
	<g transform="matrix(1 0 0 1 0 0)" clip-path="url(#SVGID_16_)">
		
			<image overflow="visible" width="448" height="448" xlink:href="A47CA8FD.png"  transform="matrix(0.1729 0 0 0.1729 598.4829 320.0799)">
		</image>
	</g>
</g>
<path fill="#FCC436" d="M395.5,359.5c0,19.7-16,35.7-35.7,35.7c-19.7,0-35.7-16-35.7-35.7c0-19.7,16-35.7,35.7-35.7
	C379.5,323.8,395.5,339.8,395.5,359.5"/>
</svg>
