<?xml version="1.0" encoding="utf-8"?>
<!-- Generator: Adobe Illustrator 18.0.0, SVG Export Plug-In . SVG Version: 6.00 Build 0)  -->
<!DOCTYPE svg PUBLIC "-//W3C//DTD SVG 1.1//EN" "http://www.w3.org/Graphics/SVG/1.1/DTD/svg11.dtd">
<svg version="1.1" id="svgMenu" xmlns="http://www.w3.org/2000/svg" xmlns:xlink="http://www.w3.org/1999/xlink" x="0px" y="0px"
	 viewBox="0 0 725 442" enable-background="new 0 0 725 442" xml:space="preserve">

    <g id='google' class='svgButton'>
        <path fill="#29B59E" d="M691.4,305.5c-30-29.8-78.5-29.7-108.3,0.3c-9.8,9.9-16.4,21.6-19.7,34.2c-5.9,13.9-20.4,17-26.5,17h-3.4
            c-24.9,0-44.5-16.2-50-30.2c2.2,8.3,3.6,16.8,4.2,25.7c2.5,1.4,4.2,4.2,4.2,7.3c0,4.6-3.7,8.4-8.4,8.4c-1.7,0-3.3-0.5-4.7-1.4
            c-0.5,8.4-1.8,16.7-3.9,24.2h9.1h0h0.4c6.5-13,25.4-28,49.1-28h3.4c6.4,0,22,3.6,27.3,19.1c0,0.1,0.3,0.3,0.3,0.5
            c0.1,0.4,0.6,0.9,0.6,1.3v-0.1c3,11.1,9.7,21.5,18.6,30.4c30,29.8,78.4,29.7,108.2-0.3C721.6,383.8,721.4,335.3,691.4,305.5z
             M678.7,400.9c-10.6,10.6-25.2,17.1-41.4,17.1h0h0c-16.2,0-30.8-6.3-41.4-16.8c-10.6-10.6-17.2-25.1-17.3-41.3
            c0-16.2,6.5-30.8,17-41.4c10.6-10.6,25.2-17.2,41.4-17.3c16.2,0,30.8,6.5,41.5,17c10.6,10.6,17.2,25.1,17.3,41.3
            C695.8,375.7,689.3,390.3,678.7,400.9z"/>

            <image overflow="visible" width="448" height="448" xlink:href="A47CA8F4.png"  transform="matrix(0.1729 0 0 0.1729 598.4829 321.0799)">
        </image>
    </g>
    <g id='unesco' class='svgButton'>
        <path fill="#36A8E0" d="M555.3,86.7c-42.3,0.1-76.5,34.5-76.4,76.8c0,14.4,4,27.8,11,39.3c5.1,13.7-2.7,25.9-6.9,30.1l-2.4,2.4
            c-17.6,17.5-42.9,19.9-56.6,14c7.5,4.3,14.5,9.4,20.9,15.1c0.7-0.2,1.4-0.3,2.2-0.3c4.7,0,8.4,3.7,8.4,8.4c0,4.1-2.9,7.5-6.7,8.3
            c17.3,19.4,28.4,44.5,30.1,72.1c-2.3,1.5-3.8,4.1-3.8,7c0,2.9,1.5,5.5,3.8,7c1.3,0.9,2.9,1.4,4.7,1.4c4.7,0,8.4-3.8,8.4-8.4
            c0-3.1-1.7-5.8-4.2-7.3c-0.5-8.8-1.9-17.4-4.2-25.7c-2.9-10.9-7.3-21.3-12.8-30.9c-5.9-13.7-3.5-39,14-56.6l2.4-2.4
            c4.7-4.7,19-13.6,34.3-5l-0.4-0.4c10.4,5.3,22.2,8.2,34.7,8.2c42.3-0.1,76.5-34.5,76.4-76.8C632,120.8,597.6,86.6,555.3,86.7z
             M482.3,354c0.4-0.1,0.8-0.1,1.2-0.1c1.6,0,3.1,0.6,4.1,1.7c0,0,0,0,0,0c0,0,0,0,0,0c1,1.1,1.7,2.5,1.7,4.1c0,0.2,0,0.4,0,0.6
            c-0.2,2.3-1.8,4.2-3.9,5c-0.6,0.2-1.3,0.3-1.9,0.3c-2.2,0-4-1.2-5.1-2.9c-0.5-0.9-0.8-1.9-0.8-3C477.6,357,479.6,354.6,482.3,354z
             M597.4,204.6C586,216.1,571,221.8,556,221.9c-15,0-30-5.6-41.5-17c-11.5-11.4-17.2-26.4-17.3-41.4c0-15,5.6-30,17-41.5
            c11.4-11.4,26.2-17.2,41.1-17.3c15.1,0,30.2,5.6,41.7,17c11.5,11.4,17.2,26.4,17.3,41.4C614.4,178.1,608.8,193.1,597.4,204.6z"/>
        <g>
            <path fill="#1D1D1B" d="M518.5,190.6h2.3v6.3c0,1,0,1.6,0.1,1.9c0.1,0.5,0.3,0.9,0.7,1.1c0.4,0.3,0.9,0.4,1.5,0.4
                c0.7,0,1.2-0.1,1.5-0.4c0.3-0.3,0.5-0.6,0.6-1c0.1-0.4,0.1-1.1,0.1-2v-6.4h2.3v6.1c0,1.4-0.1,2.4-0.2,3c-0.1,0.6-0.4,1.1-0.7,1.5
                c-0.3,0.4-0.8,0.7-1.4,0.9c-0.6,0.2-1.3,0.4-2.2,0.4c-1.1,0-1.9-0.1-2.5-0.4c-0.6-0.3-1-0.6-1.4-1c-0.3-0.4-0.5-0.8-0.7-1.3
                c-0.2-0.7-0.2-1.6-0.2-2.9V190.6"/>
            <polygon fill="#1D1D1B" points="531.8,202.3 531.8,190.6 534,190.6 538.8,198.4 538.8,190.6 541,190.6 541,202.3 538.6,202.3 
                533.9,194.6 533.9,202.3 		"/>
            <polygon fill="#1D1D1B" points="545.1,202.3 545.1,190.6 553.6,190.6 553.6,192.6 547.4,192.6 547.4,195.2 553.2,195.2 
                553.2,197.2 547.4,197.2 547.4,200.3 553.8,200.3 553.8,202.3 		"/>
            <path fill="#1D1D1B" d="M556.8,198.5l2.3-0.2c0.1,0.8,0.4,1.3,0.8,1.7c0.4,0.4,1,0.5,1.7,0.5c0.7,0,1.3-0.2,1.7-0.5
                c0.4-0.3,0.6-0.7,0.6-1.1c0-0.3-0.1-0.5-0.2-0.7c-0.2-0.2-0.4-0.4-0.8-0.5c-0.3-0.1-0.9-0.3-1.9-0.5c-1.2-0.3-2.1-0.7-2.6-1.1
                c-0.7-0.6-1.1-1.4-1.1-2.3c0-0.6,0.2-1.1,0.5-1.7c0.3-0.5,0.8-0.9,1.4-1.2c0.6-0.3,1.4-0.4,2.3-0.4c1.4,0,2.5,0.3,3.3,1
                c0.7,0.6,1.1,1.5,1.2,2.6l-2.3,0.1c-0.1-0.6-0.3-1-0.6-1.3c-0.3-0.3-0.8-0.4-1.5-0.4c-0.7,0-1.2,0.1-1.6,0.4
                c-0.2,0.2-0.4,0.4-0.4,0.7c0,0.3,0.1,0.5,0.3,0.7c0.3,0.2,1,0.5,2.1,0.8c1.1,0.3,2,0.5,2.5,0.8c0.5,0.3,1,0.7,1.3,1.2
                c0.3,0.5,0.5,1.1,0.5,1.9c0,0.7-0.2,1.3-0.6,1.9c-0.4,0.6-0.9,1-1.6,1.3c-0.7,0.3-1.5,0.4-2.5,0.4c-1.5,0-2.6-0.3-3.4-1
                C557.4,200.8,557,199.8,556.8,198.5"/>
            <path fill="#1D1D1B" d="M577.2,198l2.3,0.7c-0.3,1.3-0.9,2.2-1.7,2.8c-0.8,0.6-1.8,0.9-3.1,0.9c-1.5,0-2.8-0.5-3.8-1.6
                c-1-1.1-1.5-2.5-1.5-4.3c0-1.9,0.5-3.4,1.5-4.5c1-1.1,2.3-1.6,3.9-1.6c1.4,0,2.6,0.4,3.5,1.3c0.5,0.5,0.9,1.2,1.2,2.1l-2.3,0.5
                c-0.1-0.6-0.4-1.1-0.9-1.4c-0.4-0.3-1-0.5-1.6-0.5c-0.9,0-1.6,0.3-2.1,0.9c-0.5,0.6-0.8,1.6-0.8,3c0,1.5,0.3,2.5,0.8,3.1
                c0.5,0.6,1.2,0.9,2.1,0.9c0.6,0,1.2-0.2,1.6-0.6C576.7,199.4,577,198.8,577.2,198"/>
            <path fill="#1D1D1B" d="M585,196.4c0,1.3,0.3,2.3,0.9,3c0.6,0.7,1.4,1,2.3,1c0.9,0,1.7-0.3,2.3-1c0.6-0.7,0.9-1.7,0.9-3
                c0-1.3-0.3-2.3-0.9-3c-0.6-0.7-1.4-1-2.3-1c-1,0-1.7,0.3-2.3,1C585.3,194.1,585,195.1,585,196.4 M582.6,196.5c0-1.2,0.2-2.2,0.5-3
                c0.3-0.6,0.6-1.1,1.1-1.6c0.5-0.5,1-0.8,1.5-1c0.7-0.3,1.6-0.5,2.5-0.5c1.7,0,3.1,0.5,4.1,1.6c1,1.1,1.5,2.5,1.5,4.4
                c0,1.9-0.5,3.3-1.5,4.4c-1,1.1-2.4,1.6-4.1,1.6c-1.7,0-3.1-0.5-4.1-1.6C583.1,199.8,582.6,198.4,582.6,196.5"/>
            <path fill="#1D1D1B" d="M582.4,168.5c0,0-0.1,0.8-0.9,0.8c-0.8,0-0.8-0.8-0.8-0.8V147c0,0,0.1-1,0.8-1c0.7,0,0.8,0.8,0.8,0.8
                V168.5 M581.5,143.7c-3,0-3.2,2.1-3.2,2.1v23.8c0,0-0.1,2.2,3.2,2.2c3.3,0,3.3-2.8,3.3-2.8v-23C584.8,146,584.4,143.7,581.5,143.7
                "/>
            <path fill="#1D1D1B" d="M572,152.2h2.6v-6.4c0,0-0.5-2.1-3.2-2.1c-2.7,0-3.2,2.3-3.2,2.3v23.4c0,0,0.3,2.5,2.7,2.5
                c3,0,3.4-2.7,3.4-2.7v-7h-2.4v6.3c0,0-0.1,1-0.9,1c-0.8,0-0.7-0.9-0.7-0.9v-21.8c0,0,0-0.8,0.8-0.8s0.9,0.7,0.9,0.7L572,152.2"/>
            <path fill="#1D1D1B" d="M561.8,152.3h2.4v-6.6c0,0-0.3-2-3-2c-2.7,0-3.2,2.1-3.2,2.1v6.8c0,0,1,3.6,1.8,5.5c0.8,2,1.8,4.8,1.8,4.8
                v6c0,0,0.1,0.6-0.7,0.6c-0.8,0-0.8-0.8-0.8-0.8v-6.6h-2.2v7.7c0,0,0.5,2.1,3,2.1c2.5,0,3.1-2.2,3.1-2.2v-7.1c0,0-1.2-3.8-2.2-6.1
                c-1-2.3-1.5-4.4-1.5-4.4v-5.6c0,0,0.3-0.5,0.8-0.5c0.5,0,0.7,0.7,0.7,0.7V152.3"/>
            <polygon fill="#1D1D1B" points="553.8,143.7 553.8,146 550.1,146 550.1,156.2 552.6,156.2 552.6,158.8 549.9,158.8 549.9,169.3 
                553.5,169.3 553.5,171.7 547.5,171.7 547.5,143.7 		"/>
            <polygon fill="#1D1D1B" points="537.3,143.7 537.3,171.8 539.1,171.8 539.1,161.9 541.3,171.8 543.3,171.8 543.3,143.7 
                541.2,143.7 541.2,152.8 539.3,143.7 		"/>
            <path fill="#1D1D1B" d="M526.9,143.7h2.5v24.8c0,0,0.1,0.8,0.7,0.8c0.6,0,0.7-0.7,0.7-0.7v-24.9h2.5v25.5c0,0-0.1,2.5-3.3,2.5
                c-3.2,0-3-2.6-3-2.6L526.9,143.7"/>
            <polygon fill="#1D1D1B" points="529,137.1 524.9,137.1 524.9,135.3 556.1,123.4 587,135.2 587,137.1 582.9,137.1 556.1,127.2 		
                "/>
            <polygon fill="#1D1D1B" points="532,137.1 538.9,137.1 556.1,131.5 572.5,137.1 579.5,137.1 556.1,128.6 		"/>
            <polygon fill="#1D1D1B" points="524.9,138.6 524.9,142.1 587,142.1 587,138.6 		"/>
            <polygon fill="#1D1D1B" points="524.9,173.3 524.9,176.2 587,176.2 587,173.3 		"/>
            <polygon fill="#1D1D1B" points="521.8,178.2 521.8,181.1 590.2,181.1 590.2,178.2 		"/>
            <polygon fill="#1D1D1B" points="518.5,183.2 518.5,186.1 593.4,186.1 593.4,183.2 		"/>
        </g>
    </g>
    <g id='toefl' class='svgButton'>
        <path fill="#9E78B5" d="M447,264c-0.8,0-1.5,0.1-2.2,0.3c-6.4-5.7-13.4-10.7-20.9-15.1c-10.1-5.8-21-10.3-32.5-13.3
            c-13.5-6.5-28.4-25.6-28.4-49.5v-3.4c0-6.6,3.5-23.1,20.5-28.1h-0.5c11.1-3,21.5-9.7,30.3-18.6c29.8-30,29.7-78.4-0.3-108.2
            c-30-29.8-78.5-29.6-108.3,0.4c-29.8,30-29.7,78.5,0.3,108.3c10.2,10.1,22.6,16.8,35.6,20c13.3,6.1,16.5,20.2,16.5,26.2v3.4
            c0,24-15.3,43.1-28.9,49.5c7.7-2,15.8-3.2,24-3.7c1.4-2.5,4.2-4.2,7.3-4.2c4.6,0,8.4,3.7,8.4,8.4c0,1.7-0.5,3.3-1.4,4.6
            c27.7,1.5,52.8,12.5,72.3,29.7c-0.1,0.5-0.2,1.1-0.2,1.7c0,4.7,3.8,8.4,8.4,8.4c0.6,0,1.1-0.1,1.7-0.2c3.8-0.8,6.7-4.2,6.7-8.3
            C455.4,267.8,451.6,264,447,264z M359.1,141c-16.2,0-30.8-6.5-41.5-17c-10.6-10.6-17.2-25.2-17.3-41.4c0-16.2,6.5-30.8,17-41.5
            c10.6-10.6,25.2-17.2,41.4-17.3c16.2,0,30.8,6.5,41.5,17c10.6,10.6,17.2,25.2,17.3,41.4c0,16.2-6.5,30.8-17,41.5
            C389.9,134.4,375.3,140.9,359.1,141z M447.6,278.3c-0.2,0-0.4,0-0.6,0c-3.3,0-5.9-2.6-5.9-5.9c0-1.2,0.4-2.3,1-3.2
            c0.9-1.3,2.3-2.3,4-2.6c0.3-0.1,0.6-0.1,0.9-0.1c0.2,0,0.4,0,0.6,0c2.4,0.2,4.3,1.9,5,4.1c0.2,0.6,0.3,1.1,0.3,1.7
            C452.9,275.5,450.6,278,447.6,278.3z"/>
        <g>
            <path fill="#134985" d="M346.7,46.7c-1.5,0.9-2.9,1.8-4.4,2.8c-5.1,3.5-9.4,7.6-11.9,13.3c-1.7,3.8-2.1,7.8-0.7,11.9
                c1,2.9,3,5,5.5,6.6c4.1,2.6,8.6,3.6,13.4,4c3.5,0.3,7,0.1,10.4-0.4c4.4-0.6,8.8-1.8,13-3.5c4-1.6,7.7-3.7,11.2-6.3
                c0.2-0.2,0.4-0.3,0.7-0.4c-1.2,1.4-2.6,2.5-4.1,3.6c-4.5,3.3-9.3,5.7-14.6,7.4c-3.3,1.1-6.7,1.7-10.2,2.2
                c-3.8,0.6-7.6,0.7-11.5,0.3c-5.2-0.6-10.2-2-14.3-5.4c-3.7-3.1-5.6-7.2-5.4-12.1c0.2-4.8,2.4-8.7,5.4-12.3
                c3.8-4.5,8.5-7.7,13.7-10.3c1.2-0.6,2.5-1.2,3.8-1.7C346.7,46.6,346.7,46.7,346.7,46.7z"/>
            <path fill="#862628" d="M345.5,51.7c1-1.6,2.2-2.5,3.4-3.4c4.9-3.9,10.4-6.3,16.5-7.5c4.6-1,9.2-1.2,13.7-0.2
                c4.5,1,8.7,2.8,11.7,6.5c3.2,4,4.6,8.5,3.3,13.6c-0.9,3.5-2.8,6.5-5.1,9.2c-1,1.2-2.1,2.3-3.2,3.5c-0.2,0.2-0.5,0.5-1,0.6
                c0.9-1.4,1.8-2.6,2.5-3.9c1.1-2.2,1.9-4.6,2.1-7c0.4-4.3,0.4-8.6-2.2-12.3c-2.3-3.4-5.7-5.3-9.6-6.4c-3.6-1-7.4-1.2-11.1-0.9
                c-3.2,0.3-6.3,1-9.4,2c-4,1.4-7.8,3.3-11.2,6C345.9,51.5,345.8,51.5,345.5,51.7z"/>
            <path fill="#134985" d="M333.3,110.4c0.2-4.7,1.7-8.9,5.7-11.7c3.1-2.2,8.5-2.7,11.8-0.3c1.3,0.9,2.2,2.1,2.6,3.6
                c1.6,5.5,0.5,10.6-3.4,14.7c-3.1,3.2-7.8,4.1-11.9,2.3c-2.1-0.9-3.4-2.5-4.1-4.6C333.5,113.2,333.2,111.8,333.3,110.4z M350,106.4
                c0-0.6,0.1-1.2,0-1.8c-0.4-1.9-1.1-3.7-3.2-4.3c-2.5-0.8-4.8-0.2-6.5,1.7c-2.5,2.8-3.3,6.3-2.9,10c0.2,2,1.1,3.6,3,4.4
                c2.2,1,4.3,0.6,6.1-0.9C349.2,113.1,349.8,109.8,350,106.4z"/>
            <path fill="#134985" d="M361.5,119.5c-1.8,0-3.6-0.1-5.4,0c-1,0-1.1-0.4-0.9-1.2c0.5-1.7,0.7-3.4,1-5.2c0.8-4.4,1.8-8.8,2.5-13.3
                c0.1-0.6,0.3-1.3,0.4-2c0.1-0.5,0.4-0.7,0.9-0.7c3.6,0,7.1,0,10.7,0c0.6,0,0.9,0.3,0.7,0.9c-0.1,0.6-0.3,1.3-0.4,1.9
                c-0.1,0.6-0.6,0.4-0.9,0.4c-2.3,0-4.5,0-6.8,0c-0.6,0-1,0.1-1.1,0.7c-0.3,1.5-0.5,3-0.8,4.5c-0.1,0.7,0.2,0.9,0.8,0.9
                c2,0,3.9,0,5.9,0c1.1,0,1.3,0.2,1,1.3c-0.1,0.3-0.2,0.6-0.3,1c0,0.6-0.4,0.8-0.9,0.8c-2.1,0-4.2,0-6.3,0c-0.8,0-1.1,0.3-1.2,1.1
                c-0.2,1.6-0.5,3.3-0.9,4.9c-0.2,1,0.1,1.1,0.9,1.1c2.3,0,4.6,0,6.9,0c0.8,0,1,0.1,0.9,1c-0.3,2.1-0.3,2.1-2.3,2.1
                C364.4,119.5,362.9,119.5,361.5,119.5z"/>
            <path fill="#134985" d="M343,74.1c-1.7,0-3.4,0-5.1,0c-1.3,0-1.3,0-1-1.2c0.6-3.2,1.1-6.4,1.8-9.6c0.5-2.5,1-4.9,1.5-7.4
                c0.1-0.6,0.4-0.8,1-0.8c3.5,0,6.9,0,10.4,0c0.9,0,1,0.4,0.8,1.2c-0.1,0.2-0.2,0.4-0.2,0.7c-0.3,1.5-0.3,1.5-1.9,1.5
                c-1.8,0-3.7,0-5.5,0c-0.6,0-1,0.1-1.1,0.9c-0.1,0.7-0.3,1.5-0.5,2.2c-0.2,0.8,0,1.2,0.9,1.2c1.8,0,3.7,0,5.5,0
                c0.8,0,1.1,0.1,0.9,1c-0.4,2.5-0.4,2.5-2.9,2.5c-1.5,0-3,0-4.5,0c-0.6,0-1,0.2-1.1,0.8c-0.1,1-0.3,2-0.5,3
                c-0.2,0.7,0.3,0.8,0.8,0.8c2.3,0,4.6,0,6.9,0c0.6,0,0.9,0.1,0.6,0.8c-0.3,0.8,0,2-0.7,2.5c-0.6,0.5-1.7,0.1-2.6,0.1
                C345.5,74.1,344.2,74.1,343,74.1z"/>
            <path fill="#134985" d="M371.3,74.4c-1.9-0.1-3.7-0.2-5.4-1.1c-0.5-0.3-0.6-0.5-0.3-1c0.4-0.7,0.7-1.4,0.9-2.1
                c0.2-0.4,0.3-0.5,0.7-0.3c1.8,0.9,3.6,1.3,5.6,1c1.8-0.2,2.9-1.9,2-3.1c-0.5-0.7-1.2-1.1-2-1.4c-1.1-0.5-2.1-1-3-1.6
                c-3.1-2.1-2.5-6.6,0.5-8.6c1.7-1.1,3.5-1.4,5.4-1.5c1.3-0.1,2.7,0.4,4.1,0.7c0.7,0.2,1,0.6,0.5,1.3c-0.1,0.1-0.1,0.3-0.2,0.5
                c-0.2,0.6-0.3,1.3-0.8,1.7c-0.5,0.4-1.1-0.3-1.7-0.4c-1.3-0.1-2.5-0.5-3.8-0.1c-0.8,0.2-1.5,0.6-1.7,1.5c-0.2,0.9,0.3,1.5,1,1.9
                c1.3,0.9,2.9,1.3,4.2,2.3c3.5,2.4,2.5,7.3-0.7,9.1C374.8,74.3,373.3,74.3,371.3,74.4z"/>
            <path fill="#134985" d="M382.7,100.3c-1.1,0-2.2,0-3.4,0c-0.7,0-1,0.2-1.1,0.9c-0.3,1.7-0.7,3.4-1,5.2c-0.1,0.6,0.5,0.5,0.8,0.5
                c2,0,3.9,0,5.9,0c0.7,0,1,0.1,0.8,0.9c-0.3,2.1-0.3,2.1-2.4,2.1c-1.6,0-3.3,0-4.9,0c-0.7,0-1,0.2-1.1,1c-0.5,2.7-1.1,5.3-1.5,7.9
                c-0.1,0.6-0.4,0.7-0.9,0.7c-0.2,0-0.5,0-0.7,0c-2.9,0-2.2,0.4-1.8-2.4c0.4-2.7,1-5.5,1.5-8.2c0.4-2.4,0.9-4.7,1.4-7.1
                c0.3-1.4,0.4-2.7,0.8-4.1c0.1-0.5,0.3-0.6,0.7-0.6c3.6,0,7.2,0,10.8,0c0.6,0,0.8,0.3,0.7,0.8c-0.1,0.6-0.3,1.3-0.4,1.9
                c-0.1,0.5-0.4,0.4-0.7,0.4C385.2,100.3,384,100.3,382.7,100.3z"/>
            <path fill="#134985" d="M326.8,97.2c2.3,0,4.7,0,7,0c0.8,0,1.2,0.1,0.9,1.1c-0.6,2.1-0.5,2.1-2.8,2.1c-1.1,0-2.1,0-3.2,0
                c-0.6,0-0.9,0.2-1,0.8c-0.4,2.5-0.8,5-1.3,7.5c-0.6,3.4-1.3,6.8-2,10.2c-0.1,0.5-0.3,0.6-0.8,0.6c-0.7,0-1.4-0.1-2,0
                c-0.9,0.1-1-0.3-0.9-1.1c0.6-3,1.1-5.9,1.7-8.9c0.5-2.8,1-5.6,1.6-8.4c0.1-0.7-0.2-0.8-0.8-0.8c-1.5,0-2.9,0-4.4,0
                c-0.7,0-0.9-0.3-0.8-0.9c0.1-0.6,0.3-1.2,0.4-1.8c0.1-0.6,0.6-0.5,0.9-0.5C322,97.2,324.4,97.2,326.8,97.2
                C326.8,97.2,326.8,97.2,326.8,97.2z"/>
            <path fill="#134985" d="M393.3,119.5c-1.8,0-3.5,0-5.3,0c-0.8,0-1-0.3-0.9-1c0.5-2.4,1-4.9,1.5-7.3c0.6-3.2,1.2-6.3,1.8-9.5
                c0.2-1.3,0.4-2.5,0.7-3.8c0.1-0.3,0.2-0.7,0.6-0.7c0.9,0,1.8,0,2.6,0c0.7,0,0.5,0.6,0.4,0.9c-0.5,2.5-1,5.1-1.4,7.6
                c-0.6,3.3-1.2,6.5-1.8,9.8c-0.2,0.8,0.2,0.8,0.7,0.8c2.3,0,4.6,0,6.9,0c0.7,0,1,0,0.8,0.9c-0.4,2.3-0.4,2.3-2.7,2.3
                C396,119.5,394.6,119.5,393.3,119.5z"/>
            <path fill="#134985" d="M368.9,55.1c-0.9,1-1.8,1.8-2.3,3c-0.2,0.4-0.6,0.3-0.9,0.3c-0.9,0-1.8,0-2.7,0c-0.5,0-0.8,0.2-0.9,0.7
                c-0.6,3.1-1.1,6.2-1.7,9.3c-0.3,1.7-0.7,3.4-1,5.2c-0.1,0.4-0.4,0.4-0.7,0.4c-0.9,0-1.8,0-2.6,0c-0.7,0-0.8-0.3-0.7-0.9
                c0.4-1.9,0.7-3.9,1.1-5.8c0.5-2.6,1-5.2,1.5-7.7c0.2-1.2,0.2-1.2-1.1-1.2c-0.9,0-1.8,0-2.6,0c-0.5,0-0.7-0.2-0.6-0.7
                c0.5-3,0.1-2.6,2.9-2.6c3.8,0,7.6,0,11.4,0C368.2,55.1,368.5,55.1,368.9,55.1z"/>
        </g>
    </g>
    <g id='conocer' class='svgButton'>
        <path fill="#FCC436" d="M359.4,228c-3.1,0-5.8,1.7-7.3,4.2c-8.2,0.5-16.3,1.8-24,3.7c-11.6,2.9-22.5,7.4-32.5,13.3
            c-13.7,5.9-39,3.5-56.5-14l-2.4-2.4c-4.7-4.7-13.7-19-5-34.3l-0.4,0.4c5.3-10.4,8.2-22.2,8.2-34.7c-0.1-42.3-34.5-76.5-76.8-76.4
            c-42.3,0.1-76.5,34.5-76.4,76.8c0.1,42.3,34.5,76.5,76.8,76.4c14.4,0,27.8-4,39.3-11c13.7-5.1,25.9,2.7,30.1,6.9l2.4,2.4
            c17.9,17.9,20,43.9,13.6,57.5c4.4-7.8,9.5-15.1,15.4-21.7c-0.2-0.7-0.2-1.4-0.2-2.2c0-4.6,3.7-8.4,8.4-8.4c4.1,0,7.5,2.9,8.3,6.7
            c19.4-17.3,44.5-28.4,72.1-30.1c1.5,2.3,4.1,3.8,7,3.8c2.9,0,5.5-1.5,7-3.8c0.9-1.3,1.4-2.9,1.4-4.6C367.8,231.8,364,228,359.4,228
            z M204.5,205.8c-11.4,11.5-26.4,17.2-41.4,17.3c-15,0-30-5.6-41.5-17c-11.5-11.4-17.2-26.4-17.3-41.4c0-15,5.6-30,17-41.5
            c11.4-11.5,26.4-17.2,41.4-17.3c15,0,30,5.6,41.5,17c11.5,11.4,17.2,26.4,17.3,41.4C221.5,179.3,215.9,194.3,204.5,205.8z
             M365.2,237.6C365.2,237.6,365.2,237.7,365.2,237.6c0,0.2-0.1,0.3-0.1,0.4c0,0.1,0,0.1,0,0.2c-0.2,0.6-0.4,1.1-0.7,1.5
            c-1.1,1.6-2.8,2.6-4.9,2.6c-2.1,0-4-1.1-5-2.8c-0.1-0.2-0.3-0.5-0.4-0.7c0,0,0-0.1,0-0.1c-0.3-0.7-0.4-1.4-0.4-2.2
            c0-2.4,1.5-4.5,3.6-5.4c0.7-0.3,1.5-0.5,2.3-0.5c0.4,0,0.8,0,1.1,0.1c0,0,0,0,0.1,0c0.1,0,0.1,0,0.2,0c1.2,0.3,2.2,0.9,3,1.8
            c0.9,1,1.5,2.4,1.5,3.9C365.3,236.8,365.3,237.2,365.2,237.6z"/>
        <g>
            <path fill="#FF0000" d="M164.3,205.1c-22.7,0.3-42.5-18.4-42.2-42.7c0.3-23.2,19.3-41.8,42.7-41.4c22.3,0.3,40.7,17.9,41.4,40.6
                C207.1,186.9,186.7,205.3,164.3,205.1z M152.5,158c0,5,0,10.1,0,15.1c0,2.1,0,2.1,2,2.1c10,0,19.9,0,29.9,0c4.9,0,8-3,8-7.9
                c0.1-6.9,0.1-13.7,0-20.6c-0.1-6.9-4.7-11.4-11.6-11.5c-6.7,0-13.5,0-20.2,0c-5.1,0-8.1,2.9-8.1,8
                C152.5,148.3,152.5,153.2,152.5,158z M144.2,174.2c-4.6,0-8.3,3.9-8.3,8.5c0.1,4.5,3.9,8.2,8.4,8.2c4.5,0,8.3-3.8,8.3-8.3
                C152.7,178,148.8,174.2,144.2,174.2z"/>
        </g>
    </g>
    <g id='cambridge' class='svgButton'>
        <path fill="#E55947" d="M280.3,271.2c-0.8-3.8-4.2-6.7-8.3-6.7c-4.6,0-8.4,3.8-8.4,8.4c0,0.8,0,1.5,0.2,2.2
            c-5.9,6.7-11,13.9-15.4,21.7c-0.4,0.8-0.9,1.6-1.3,2.4c-0.1,0.2-0.2,0.4-0.3,0.6c-3.9,7.3-7.2,15.1-9.9,23.2v-0.2
            c0,0.2,0,0.3,0,0.5c-0.3,1-0.6,1.9-0.9,3c-5.1,14-24.9,30.7-50.1,30.7h-3.4c-6.1,0-20.5-3.1-26.4-16.8c-3.3-12.8-10-24.8-20.1-34.8
            c-30-29.8-78.5-29.6-108.3,0.4c-29.8,30-29.7,78.5,0.3,108.3c30,29.8,78.5,29.7,108.3-0.3c8.7-8.7,14.5-19.1,18.5-30v0.1
            c5-16.9,21.1-20.9,27.7-20.9h3.4c23.6,0,42.5,15,49,28h0.4h1.8h7.3c-2-7.5-3.4-15.3-3.9-23.4c-1.3,0.8-2.8,1.3-4.4,1.3
            c-4.6,0-8.4-3.7-8.4-8.4c0-4.6,3.7-8.4,8.4-8.4c1.7,0,3.2,0.5,4.6,1.3c1.5-27.7,12.5-52.8,29.7-72.3c0.5,0.1,1.1,0.2,1.7,0.2
            c4.6,0,8.4-3.8,8.4-8.4C280.5,272.3,280.4,271.8,280.3,271.2z M123.7,401.1c-10.6,10.6-25.2,17.2-41.4,17.3
            c-16.2,0-30.8-6.5-41.5-17c-10.6-10.6-17.2-25.2-17.3-41.4c0-16.2,6.5-30.8,17-41.5c10.6-10.6,25.2-17.2,41.4-17.3
            c16.2,0,30.8,6.5,41.5,17c10.6,10.6,17.2,25.2,17.3,41.4C140.8,375.8,134.3,390.4,123.7,401.1z M272.1,278.8c-1.2,0-2.3-0.4-3.2-1
            c-0.9-0.6-1.7-1.5-2.1-2.5c0,0,0-0.1-0.1-0.1c-0.1-0.2-0.2-0.5-0.3-0.7c-0.1-0.5-0.2-1-0.2-1.6c0-1,0.2-1.9,0.6-2.7
            c0.1-0.2,0.2-0.3,0.3-0.5c0.1-0.2,0.3-0.4,0.4-0.6c0.1-0.1,0.2-0.3,0.4-0.4c1.1-1.1,2.5-1.7,4.2-1.7c0.6,0,1.2,0.1,1.7,0.3
            c1.3,0.4,2.4,1.3,3.2,2.4c0.6,0.9,1,2,1,3.2C277.9,276.2,275.3,278.8,272.1,278.8z"/>
        <path fill="#EA5B0C" d="M240.6,353.4c-1.3-0.8-2.9-1.3-4.6-1.3c-4.6,0-8.4,3.8-8.4,8.4c0,4.6,3.8,8.4,8.4,8.4
            c1.6,0,3.2-0.5,4.4-1.3c2.4-1.5,4-4.1,3.9-7.1C244.5,357.5,242.9,354.9,240.6,353.4z M242,360.5L242,360.5c0,0.2,0,0.4,0,0.6
            c-0.3,2.7-2.3,4.8-4.9,5.2c-0.3,0-0.6,0.1-0.9,0.1c-1.4,0-2.7-0.5-3.7-1.3c-0.1-0.1-0.3-0.2-0.4-0.4c-1.1-1.1-1.7-2.5-1.7-4.2v0v0
            c0-3.3,2.6-5.9,5.9-5.9c0.3,0,0.6,0,0.9,0.1C239.8,355.2,242,357.6,242,360.5L242,360.5z"/>

            <image overflow="visible" width="590" height="286" xlink:href="A47CA8F4.jpg"  transform="matrix(0.173 0 0 0.1728 31.4944 335.0362)">
        </image>
    </g>
    <g id='decoration'>
        <g>
            <path fill="#29B59E" d="M408.2,360.4c0,2.1-1.7,3.8-3.8,3.8c-2.1,0-3.8-1.7-3.8-3.8c0-2.1,1.7-3.8,3.8-3.8
                C406.5,356.6,408.2,358.3,408.2,360.4"/>
            <path fill="#29B59E" d="M423.3,360.4c0,2.1-1.7,3.8-3.8,3.8c-2.1,0-3.8-1.7-3.8-3.8c0-2.1,1.7-3.8,3.8-3.8
                C421.6,356.6,423.3,358.3,423.3,360.4"/>
            <path fill="#29B59E" d="M438.4,360.4c0,2.1-1.7,3.8-3.8,3.8c-2.1,0-3.8-1.7-3.8-3.8c0-2.1,1.7-3.8,3.8-3.8
                C436.7,356.6,438.4,358.3,438.4,360.4"/>
            <path fill="#29B59E" d="M453.4,360.4c0,2.1-1.7,3.8-3.8,3.8s-3.8-1.7-3.8-3.8c0-2.1,1.7-3.8,3.8-3.8S453.4,358.3,453.4,360.4"/>
            <path fill="#29B59E" d="M468.5,360.4c0,2.1-1.7,3.8-3.8,3.8c-2.1,0-3.8-1.7-3.8-3.8c0-2.1,1.7-3.8,3.8-3.8
                C466.8,356.6,468.5,358.3,468.5,360.4"/>
        </g>
        <g>
            <path fill="#E55947" d="M257.9,360.4c0,2.1-1.7,3.8-3.8,3.8c-2.1,0-3.8-1.7-3.8-3.8c0-2.1,1.7-3.8,3.8-3.8
                C256.2,356.6,257.9,358.3,257.9,360.4"/>
            <path fill="#E55947" d="M273,360.4c0,2.1-1.7,3.8-3.8,3.8c-2.1,0-3.8-1.7-3.8-3.8c0-2.1,1.7-3.8,3.8-3.8
                C271.3,356.6,273,358.3,273,360.4"/>
            <path fill="#E55947" d="M288.1,360.4c0,2.1-1.7,3.8-3.8,3.8c-2.1,0-3.8-1.7-3.8-3.8c0-2.1,1.7-3.8,3.8-3.8
                C286.4,356.6,288.1,358.3,288.1,360.4"/>
            <path fill="#E55947" d="M303.2,360.4c0,2.1-1.7,3.8-3.8,3.8c-2.1,0-3.8-1.7-3.8-3.8c0-2.1,1.7-3.8,3.8-3.8
                C301.5,356.6,303.2,358.3,303.2,360.4"/>
            <path fill="#E55947" d="M318.2,360.4c0,2.1-1.7,3.8-3.8,3.8c-2.1,0-3.8-1.7-3.8-3.8c0-2.1,1.7-3.8,3.8-3.8
                C316.5,356.6,318.2,358.3,318.2,360.4"/>
        </g>
        <g>
            <path fill="#36A8E0" d="M393.9,325.9c1.5,1.5,1.5,3.9,0,5.3c-1.5,1.5-3.9,1.5-5.4,0c-1.5-1.5-1.5-3.9,0-5.3
                C390.1,324.5,392.5,324.5,393.9,325.9"/>
            <path fill="#36A8E0" d="M404.6,315.3c1.5,1.5,1.5,3.9,0,5.4c-1.5,1.5-3.9,1.5-5.4,0c-1.5-1.5-1.5-3.9,0-5.4
                C400.7,313.8,403.1,313.8,404.6,315.3"/>
            <path fill="#36A8E0" d="M415.3,304.6c1.5,1.5,1.5,3.9,0,5.4c-1.5,1.5-3.9,1.5-5.4,0c-1.5-1.5-1.5-3.9,0-5.4
                C411.4,303.2,413.8,303.1,415.3,304.6"/>
            <path fill="#36A8E0" d="M425.9,294c1.5,1.5,1.5,3.9,0,5.3c-1.5,1.5-3.9,1.5-5.3,0c-1.5-1.5-1.5-3.9,0-5.3
                C422,292.5,424.4,292.5,425.9,294"/>
            <path fill="#36A8E0" d="M436.6,283.3c1.5,1.5,1.5,3.9,0,5.3c-1.5,1.5-3.9,1.5-5.4,0c-1.5-1.5-1.5-3.9,0-5.3
                C432.7,281.8,435.1,281.8,436.6,283.3"/>
        </g>
        <g>
            <path fill="#9E78B5" d="M359.5,311.7c2.1,0,3.8,1.7,3.8,3.8c0,2.1-1.7,3.8-3.8,3.8c-2.1,0-3.8-1.7-3.8-3.8
                C355.7,313.4,357.4,311.7,359.5,311.7"/>
            <path fill="#9E78B5" d="M359.4,296.6c2.1,0,3.8,1.7,3.8,3.8c0,2.1-1.7,3.8-3.8,3.8c-2.1,0-3.8-1.7-3.8-3.8
                C355.7,298.3,357.4,296.6,359.4,296.6"/>
            <path fill="#9E78B5" d="M359.4,281.5c2.1,0,3.8,1.7,3.8,3.8c0,2.1-1.7,3.8-3.8,3.8c-2.1,0-3.8-1.7-3.8-3.8
                C355.7,283.2,357.4,281.5,359.4,281.5"/>
            <path fill="#9E78B5" d="M359.4,266.4c2.1,0,3.8,1.7,3.8,3.8c0,2.1-1.7,3.8-3.8,3.8c-2.1,0-3.8-1.7-3.8-3.8
                C355.7,268.1,357.4,266.4,359.4,266.4"/>
            <path fill="#9E78B5" d="M359.5,251.4c2.1,0,3.8,1.7,3.8,3.8c0,2.1-1.7,3.8-3.8,3.8c-2.1,0-3.8-1.7-3.8-3.8
                C355.7,253.1,357.4,251.4,359.5,251.4"/>
        </g>
        <g>
            <path fill="#FCC436" d="M325,325.9c1.5-1.5,3.9-1.5,5.4,0c1.5,1.5,1.5,3.9,0,5.3c-1.5,1.5-3.9,1.5-5.3,0
                C323.5,329.8,323.5,327.4,325,325.9"/>
            <path fill="#FCC436" d="M314.3,315.3c1.5-1.5,3.9-1.5,5.4,0c1.5,1.5,1.5,3.9,0,5.4c-1.5,1.5-3.9,1.5-5.4,0
                C312.8,319.2,312.8,316.8,314.3,315.3"/>
            <path fill="#FCC436" d="M303.6,304.6c1.5-1.5,3.9-1.5,5.4,0c1.5,1.5,1.5,3.9,0,5.4c-1.5,1.5-3.9,1.5-5.4,0
                C302.2,308.5,302.2,306.1,303.6,304.6"/>
            <path fill="#FCC436" d="M293,294c1.5-1.5,3.9-1.5,5.3,0c1.5,1.5,1.5,3.9,0,5.3c-1.5,1.5-3.9,1.5-5.3,0
                C291.5,297.8,291.5,295.4,293,294"/>
            <path fill="#FCC436" d="M282.3,283.3c1.5-1.5,3.9-1.5,5.3,0c1.5,1.5,1.5,3.9,0,5.3c-1.5,1.5-3.9,1.5-5.3,0
                C280.8,287.2,280.8,284.8,282.3,283.3"/>
        </g>
        <g>
            <path fill="#29B59E" d="M444.7,289.5c-0.5-0.1-1-0.2-1.5-0.3l-46.5,46.6c3.1,4.7,5.4,10,6.6,15.6l65.4-0.4
                c0.3-0.6,0.7-1.1,1.1-1.6C467.6,327.2,459,306.6,444.7,289.5"/>
            <path fill="#F7A891" d="M384.3,323.5l46.2-46.3c-0.2-0.7-0.4-1.5-0.5-2.3c-17.3-14.2-37.9-22.7-60.2-24.7
                c-0.4,0.3-0.8,0.6-1.3,0.9v65.9C374.3,318.1,379.6,320.3,384.3,323.5"/>
            <path fill="#61ABBD" d="M351,316.9v-65.5c-0.7-0.4-1.3-0.8-1.9-1.3c-22.2,2.1-42.8,10.7-60,25.1c-0.1,0.8-0.3,1.5-0.5,2.3
                l46.4,46.1C339.8,320.4,345.2,318.1,351,316.9"/>
            <path fill="#ABABAB" d="M322.7,336L276,289.7c-0.5,0.1-1,0.2-1.5,0.3c-14.2,17.2-22.7,37.9-24.7,60.1c0.4,0.6,0.8,1.2,1.2,1.8
                l65.3-0.1C317.3,346.1,319.6,340.7,322.7,336"/>
        </g>
    </g>
    <path id='click' fill="#FCC436" d="M395.5,360.5c0,19.7-16,35.7-35.7,35.7c-19.7,0-35.7-16-35.7-35.7c0-19.7,16-35.7,35.7-35.7
        C379.5,324.8,395.5,340.8,395.5,360.5"/>
</svg>
