<?xml version="1.0" encoding="utf-8"?>
<!-- Generator: Adobe Illustrator 18.0.0, SVG Export Plug-In . SVG Version: 6.00 Build 0)  -->
<!DOCTYPE svg PUBLIC "-//W3C//DTD SVG 1.1//EN" "http://www.w3.org/Graphics/SVG/1.1/DTD/svg11.dtd">
<svg version="1.1" id="Capa_1" xmlns="http://www.w3.org/2000/svg" xmlns:xlink="http://www.w3.org/1999/xlink" x="0px" y="0px"
	 viewBox="0 0 204 86" enable-background="new 0 0 204 86" xml:space="preserve">
<g>
	<path fill="#F49712" d="M96.9,38.1c-0.7,0-1,0.5-0.7,1.1L101,47c0.2,0.3,0.4,0.5,0.7,0.5c0.2,0,0.5-0.2,0.7-0.5l4.7-7.8
		c0.4-0.6,0.1-1.1-0.7-1.1H96.9L96.9,38.1z"/>
	<path fill="#F49712" d="M97.4,43l2.7,4.5c0.4,0.6,0.1,1.1-0.7,1.1c0.7,0,1.1-0.5,0.7-1.1L97.4,43z"/>
	<path fill="#F49712" d="M99.5,48.6L99.5,48.6L99.5,48.6L99.5,48.6z M94.7,39.2c-0.2,0-0.5,0.2-0.7,0.5l-4.7,7.8
		c-0.4,0.6-0.1,1.1,0.7,1.1h0c-0.7,0-1.1-0.5-0.7-1.1l4.7-7.8C94.3,39.4,94.5,39.2,94.7,39.2c0.2,0,0.5,0.2,0.7,0.5l2,3.3l-2-3.3
		C95.2,39.4,95,39.2,94.7,39.2"/>
	<path fill="#EA5B0C" d="M94.7,39.2c-0.2,0-0.5,0.2-0.7,0.5l-4.7,7.8c-0.4,0.6-0.1,1.1,0.7,1.1h9.4h0c0.7,0,1-0.5,0.7-1.1L97.4,43
		l-2-3.3C95.2,39.4,95,39.2,94.7,39.2"/>
	<path fill="#F49712" d="M87.8,27.8c-0.2,0-0.5,0.2-0.7,0.5l-4.7,7.8c-0.4,0.6-0.1,1.1,0.7,1.1h9.4c0.7,0,1.1-0.5,0.7-1.1l-4.7-7.8
		C88.3,27.9,88.1,27.8,87.8,27.8"/>
	<path fill="#EA5B0C" d="M92.5,38.1h-9.4c-0.5,0-0.8,0.3-0.8,0.6c0,0.2,0.1,0.3,0.2,0.5l4.7,7.8c0.2,0.3,0.4,0.5,0.7,0.5
		c0.2,0,0.5-0.2,0.7-0.5l4.7-7.8c0.1-0.2,0.2-0.3,0.2-0.5C93.4,38.3,93.1,38.1,92.5,38.1"/>
	<path fill="#0098D8" d="M90,26.6c-0.7,0-1.1,0.5-0.7,1.1l4.7,7.8c0.2,0.3,0.4,0.5,0.7,0.5c0.2,0,0.5-0.2,0.7-0.5l4.7-7.8
		c0.4-0.6,0.1-1.1-0.7-1.1H90L90,26.6z"/>
	<path fill="#0078BF" d="M96.9,15.1c-0.5,0-0.8,0.3-0.8,0.6c0,0.2,0.1,0.3,0.2,0.5l4.7,7.8c0.2,0.3,0.4,0.5,0.7,0.5
		c0.2,0,0.5-0.2,0.7-0.5l4.7-7.8c0.1-0.2,0.2-0.3,0.2-0.5c0-0.4-0.3-0.6-0.8-0.6H96.9L96.9,15.1z"/>
	<path fill="#0098D8" d="M94.7,16.3c-0.2,0-0.5,0.2-0.7,0.5l-4.7,7.8c-0.4,0.6-0.1,1.1,0.7,1.1h9.4c0.7,0,1.1-0.5,0.7-1.1l-4.7-7.8
		C95.2,16.5,95,16.3,94.7,16.3"/>
	<path fill="#0078BF" d="M108.6,16.3c-0.2,0-0.5,0.2-0.7,0.5l-4.7,7.8c-0.1,0.2-0.2,0.3-0.2,0.5c0,0.4,0.3,0.6,0.8,0.6h9.4
		c0.5,0,0.8-0.3,0.8-0.6c0-0.1-0.1-0.3-0.2-0.5l-4.7-7.8C109.1,16.5,108.8,16.3,108.6,16.3"/>
	<path fill="#4DA32F" d="M108.6,39.2c-0.2,0-0.5,0.2-0.7,0.5l-4.7,7.8c-0.1,0.2-0.2,0.3-0.2,0.5c0,0.4,0.3,0.6,0.8,0.6h9.4
		c0.5,0,0.8-0.3,0.8-0.6c0-0.2-0.1-0.3-0.2-0.5l-4.7-7.8C109.1,39.4,108.8,39.2,108.6,39.2"/>
	<path fill="#80BA27" d="M113.3,26.6h-9.4c-0.7,0-1.1,0.5-0.7,1.1l4.7,7.8c0.2,0.3,0.4,0.5,0.7,0.5c0.2,0,0.5-0.2,0.7-0.5l4.7-7.8
		C114.4,27.1,114.1,26.6,113.3,26.6"/>
	<path fill="#80BA27" d="M115.5,27.8c-0.2,0-0.5,0.2-0.7,0.5l-4.7,7.8c-0.4,0.6-0.1,1.1,0.7,1.1h9.4c0.8,0,1.1-0.5,0.7-1.1l-4.7-7.8
		C116,27.9,115.7,27.8,115.5,27.8"/>
	<path fill="#4DA32F" d="M120.2,38.1h-9.4c-0.5,0-0.8,0.3-0.8,0.6c0,0.2,0.1,0.3,0.2,0.5l4.7,7.8c0.2,0.3,0.4,0.5,0.7,0.5
		c0.2,0,0.5-0.2,0.7-0.5l4.7-7.8c0.1-0.2,0.2-0.3,0.2-0.5C121.1,38.3,120.8,38.1,120.2,38.1"/>
	<path fill="#4A462A" d="M54,60.1h-3.4v8.9c0,0.1-0.1,0.2-0.3,0.2h-0.2c-0.2,0-0.3-0.1-0.3-0.2v-8.9h-3.4c-0.2,0-0.3-0.1-0.3-0.2
		v-0.1c0-0.1,0.1-0.2,0.3-0.2H54c0.2,0,0.3,0.1,0.3,0.2v0.1C54.3,60.1,54.2,60.1,54,60.1"/>
	<path fill="#4A462A" d="M35.8,69.3h-0.2c-0.1,0-0.2-0.1-0.3-0.2l-1.3-3.5h-4.6l-1.3,3.5c0,0.1-0.1,0.2-0.3,0.2h-0.2
		c-0.2,0-0.3-0.1-0.2-0.3l3.3-8.8c0.1-0.4,0.5-0.6,1-0.6c0.5,0,0.9,0.2,1,0.6l3.3,8.9C36.1,69.2,36.1,69.3,35.8,69.3 M32.1,60.3
		c0-0.1-0.1-0.3-0.4-0.3c-0.2,0-0.3,0.1-0.4,0.2L29.6,65h4.2L32.1,60.3z"/>
	<path fill="#4A462A" d="M79.8,69.3h-0.2c-0.1,0-0.2-0.1-0.3-0.2L78,65.6h-4.6l-1.3,3.5c0,0.1-0.1,0.2-0.3,0.2h-0.2
		c-0.2,0-0.3-0.1-0.2-0.3l3.3-8.8c0.1-0.4,0.5-0.6,1-0.6c0.5,0,0.9,0.2,1,0.6L80,69C80.1,69.2,80,69.3,79.8,69.3 M76.1,60.3
		c0-0.1-0.1-0.3-0.4-0.3c-0.2,0-0.3,0.1-0.4,0.2L73.6,65h4.2L76.1,60.3z"/>
	<path fill="#4A462A" d="M98.6,69.3h-0.2c-0.1,0-0.2-0.1-0.3-0.2l-1.3-3.5h-4.6l-1.3,3.5c0,0.1-0.1,0.2-0.3,0.2h-0.2
		c-0.2,0-0.3-0.1-0.2-0.3l3.3-8.8c0.1-0.4,0.5-0.6,1-0.6c0.5,0,0.9,0.2,1,0.6l3.3,8.9C98.8,69.2,98.8,69.3,98.6,69.3 M94.9,60.3
		c0-0.1-0.1-0.3-0.4-0.3c-0.2,0-0.3,0.1-0.4,0.2L92.4,65h4.2L94.9,60.3z"/>
	<path fill="#4A462A" d="M55.9,69.2h-0.2c-0.2,0-0.3-0.1-0.3-0.2v-9.2c0-0.1,0.1-0.2,0.3-0.2h0.2c0.2,0,0.3,0.1,0.3,0.2V69
		C56.2,69.1,56.1,69.2,55.9,69.2"/>
	<path fill="#4A462A" d="M44.4,69.3c-0.2,0-0.4,0-0.5-0.1c-0.1-0.1-0.2-0.2-0.3-0.3l-5.4-8.8c0-0.1-0.1-0.1-0.1-0.1
		c0,0-0.1,0-0.1,0.1V69c0,0.1-0.1,0.2-0.3,0.2h-0.2c-0.2,0-0.3-0.1-0.3-0.2v-8.8c0-0.4,0.3-0.6,0.8-0.6c0.4,0,0.6,0.2,0.8,0.4
		l5.3,8.8c0,0.1,0.1,0.1,0.1,0.1c0.1,0,0.1-0.1,0.1-0.1v-8.8c0-0.1,0.1-0.2,0.3-0.2h0.2c0.2,0,0.3,0.1,0.3,0.2v8.8
		C45.1,69.1,44.8,69.3,44.4,69.3"/>
	<path fill="#4A462A" d="M88.3,69.3c-0.2,0-0.4,0-0.5-0.1c-0.1-0.1-0.2-0.2-0.3-0.3l-5.4-8.8c0-0.1-0.1-0.1-0.1-0.1
		c0,0-0.1,0-0.1,0.1V69c0,0.1-0.1,0.2-0.3,0.2h-0.2c-0.2,0-0.3-0.1-0.3-0.2v-8.8c0-0.4,0.3-0.6,0.8-0.6c0.4,0,0.6,0.2,0.8,0.4
		l5.3,8.8c0,0.1,0.1,0.1,0.1,0.1s0.1-0.1,0.1-0.1v-8.8c0-0.1,0.1-0.2,0.3-0.2h0.2c0.2,0,0.3,0.1,0.3,0.2v8.8
		C89,69.1,88.7,69.3,88.3,69.3"/>
	<path fill="#4A462A" d="M23.1,69.3c-1,0-1.8-0.1-2.3-0.1c-0.3,0-0.4-0.1-0.4-0.3v-0.1c0-0.2,0.2-0.2,0.4-0.2
		c0.5,0.1,1.5,0.1,2.4,0.1c2.4,0,3-0.9,3-1.9c0-1-0.7-1.3-2.4-2.2l-1-0.5c-1.4-0.7-2.5-1.3-2.5-2.6c0-1.6,1.9-2,3.7-2
		c0.7,0,1.7,0.1,2.2,0.1c0.3,0,0.4,0.1,0.4,0.3V60c0,0.2-0.2,0.2-0.5,0.2c-0.1,0-1.5-0.1-2.2-0.1c-2.1,0-3,0.5-3,1.5
		c0,0.9,0.7,1.4,2.1,2.1l1,0.5c1.9,0.9,2.8,1.5,2.8,2.7C26.8,68,26.2,69.3,23.1,69.3"/>
	<path fill="#4A462A" d="M63.9,69.2h-3.6c-1.2,0-1.9-0.4-1.9-1.5v-8c0-0.1,0.1-0.2,0.3-0.2h0.2c0.2,0,0.3,0.1,0.3,0.2v8
		c0,0.8,0.5,0.9,1.2,0.9h3.6c0.2,0,0.3,0.1,0.3,0.2V69C64.2,69.2,64,69.2,63.9,69.2"/>
	<path fill="#4A462A" d="M70.4,69.2h-3.6c-1.2,0-1.9-0.4-1.9-1.5v-8c0-0.1,0.1-0.2,0.3-0.2h0.2c0.2,0,0.3,0.1,0.3,0.2v8
		c0,0.8,0.5,0.9,1.2,0.9h3.6c0.2,0,0.3,0.1,0.3,0.2V69C70.7,69.2,70.6,69.2,70.4,69.2"/>
	<path fill="#4A462A" d="M169.6,59.7h-6.5c-1.5,0-1.1,2.1-1.1,2.1h2.6v6.6c0,1.3,2.4,0.8,2.4,0.8v-7.4h1.5
		C170,61.8,169.6,59.7,169.6,59.7"/>
	<path fill="#4A462A" d="M111.4,67.4c-1,0.1-4.3,0.4-4.3-3c0-3.4,3.4-3.1,4.3-3c1.6,0.2,1.8-1.6,1.8-1.6c-5.8-1.5-8.5,1.4-8.5,4.5
		c0,3.1,2.7,6.1,8.5,4.5C113.2,69,113.1,67.2,111.4,67.4"/>
	<path fill="#4A462A" d="M117.9,69.2c-2.7,0-4.8-2.1-4.8-4.8c0-2.7,2.1-4.8,4.8-4.8c2.7,0,4.8,2.1,4.8,4.8
		C122.8,67.2,120.6,69.2,117.9,69.2 M117.9,61.7c-1.5,0-2.5,1.1-2.5,2.8c0,1.7,1,2.8,2.5,2.8c1.5,0,2.5-1.1,2.5-2.8
		C120.4,62.8,119.4,61.7,117.9,61.7"/>
	<path fill="#4A462A" d="M131.3,59.8l-2.8,4.8l-2.3-4c-0.9-1.4-2.7-0.8-2.7-0.8v8.6c0,1.2,2.4,0.8,2.4,0.8v-5.4c0,0,1.3,2,1.6,2.5
		c0.5,0.8,1.7,0.8,2.1,0l1.7-2.7v4.8c0,1.2,2.4,0.8,2.4,0.8v-8.6C133.7,59.3,131.3,59.8,131.3,59.8"/>
	<path fill="#4A462A" d="M159.6,65.5c1.1-0.5,1.8-1.5,1.8-2.7c0-2.2-1.7-3.3-4-3.3c-2.8,0-4.1,0.5-4.1,0.5v8.2
		c0,1.3,2.4,0.8,2.4,0.8v-7.5c0.5-0.1,0.9-0.1,1.4-0.1c1.1,0,1.9,0.2,1.9,1.3c0,0.6-0.3,1-1.3,1.1c-1.2,0.1-0.7,1.1-0.4,1.7l1.4,2.7
		c0.8,1.5,3,0.8,3,0.8L159.6,65.5z"/>
	<path fill="#4A462A" d="M180.9,65.5c1.1-0.5,1.8-1.5,1.8-2.7c0-2.2-1.7-3.3-4-3.3c-2.8,0-4.1,0.5-4.1,0.5v8.2
		c0,1.3,2.4,0.8,2.4,0.8v-7.5c0.5-0.1,0.9-0.1,1.5-0.1c1.1,0,1.9,0.2,1.9,1.3c0,0.6-0.3,1-1.3,1.1c-1.2,0.1-0.7,1.1-0.4,1.7l1.4,2.7
		c0.8,1.5,3,0.8,3,0.8L180.9,65.5z"/>
	<path fill="#4A462A" d="M139.3,59.6c-2.8,0-4.1,0.5-4.1,0.5v8.2c0,1.3,2.4,0.8,2.4,0.8v-3.1c0.4,0,0.9,0,1.8,0
		c2.5,0,3.9-1.5,3.9-3.2C143.4,60.7,141.6,59.6,139.3,59.6 M139.2,64.1c-0.7,0-1.1,0-1.6,0v-2.4c0.5-0.1,0.9-0.1,1.5-0.1
		c1.1,0,1.9,0.2,1.9,1.3C140.9,63.5,140.5,64.1,139.2,64.1"/>
	<path fill="#4A462A" d="M148.9,60.3c-0.5-1.1-2.5-0.5-2.5-0.5l-3.6,8.6c-0.5,1.2,2.2,0.8,2.2,0.8l0.7-1.9h3.5l0.4,1.1
		c0.5,1.3,2.9,0.8,2.9,0.8L148.9,60.3z M146.5,65.3l1-2.6l0.9,2.6H146.5z"/>
	<path fill="#4A462A" d="M170.6,59.7v8.6c0,1.3,2.4,0.8,2.4,0.8v-8.6C173,59.3,170.6,59.7,170.6,59.7"/>
</g>
<polygon fill="#B3B3B3" points="15.5,55.2 4.1,43.8 15.5,32.4 "/>
</svg>
