<?xml version="1.0" encoding="utf-8"?>
<!-- Generator: Adobe Illustrator 18.0.0, SVG Export Plug-In . SVG Version: 6.00 Build 0)  -->
<!DOCTYPE svg PUBLIC "-//W3C//DTD SVG 1.1//EN" "http://www.w3.org/Graphics/SVG/1.1/DTD/svg11.dtd">
<svg version="1.1" id="Capa_1" xmlns="http://www.w3.org/2000/svg" xmlns:xlink="http://www.w3.org/1999/xlink" x="0px" y="0px"
	 viewBox="0 0 204 86" enable-background="new 0 0 204 86" xml:space="preserve">
<path fill="#F49712" d="M97.7,37.7c-0.8,0-1.1,0.6-0.7,1.2l5.2,8.6c0.2,0.3,0.5,0.5,0.7,0.5c0.3,0,0.5-0.2,0.7-0.5l5.2-8.6
	c0.4-0.7,0.1-1.2-0.7-1.2H97.7L97.7,37.7z"/>
<path fill="#F49712" d="M98.3,43.1l3,4.9c0.4,0.7,0.1,1.2-0.7,1.2c0.8,0,1.2-0.6,0.7-1.2L98.3,43.1z"/>
<path fill="#F49712" d="M100.5,49.3L100.5,49.3L100.5,49.3L100.5,49.3z M95.3,38.9c-0.3,0-0.5,0.2-0.7,0.5L89.4,48
	c-0.4,0.7-0.1,1.2,0.7,1.2h0c-0.8,0-1.2-0.6-0.7-1.2l5.2-8.6C94.8,39.1,95.1,39,95.3,38.9c0.3,0,0.5,0.2,0.7,0.5l2.2,3.7l-2.2-3.7
	C95.9,39.1,95.6,38.9,95.3,38.9"/>
<path fill="#EA5B0C" d="M95.3,39c-0.3,0-0.5,0.2-0.7,0.5L89.4,48c-0.4,0.7-0.1,1.2,0.7,1.2h10.3h0c0.8,0,1.1-0.6,0.7-1.2l-3-4.9
	l-2.2-3.7C95.9,39.1,95.6,39,95.3,39"/>
<path fill="#F49712" d="M87.7,26.4c-0.3,0-0.5,0.2-0.7,0.5l-5.2,8.6c-0.4,0.7-0.1,1.2,0.7,1.2h10.3c0.8,0,1.2-0.6,0.7-1.2l-5.2-8.6
	C88.3,26.5,88,26.4,87.7,26.4"/>
<path fill="#EA5B0C" d="M92.9,37.7H82.6c-0.6,0-0.9,0.3-0.9,0.7c0,0.2,0.1,0.4,0.2,0.5l5.2,8.6c0.2,0.3,0.5,0.5,0.7,0.5
	c0.3,0,0.5-0.2,0.7-0.5l5.2-8.6c0.1-0.2,0.2-0.4,0.2-0.5C93.8,38,93.5,37.7,92.9,37.7"/>
<path fill="#0098D8" d="M90.1,25.1c-0.8,0-1.2,0.6-0.7,1.2l5.2,8.6c0.2,0.3,0.5,0.5,0.7,0.5c0.3,0,0.5-0.2,0.7-0.5l5.2-8.6
	c0.4-0.7,0.1-1.2-0.7-1.2H90.1L90.1,25.1z"/>
<path fill="#0078BF" d="M97.7,12.5c-0.6,0-0.9,0.3-0.9,0.7c0,0.2,0.1,0.4,0.2,0.5l5.2,8.6c0.2,0.3,0.5,0.5,0.7,0.5
	c0.3,0,0.5-0.2,0.7-0.5l5.2-8.6c0.1-0.2,0.2-0.4,0.2-0.6c0-0.4-0.3-0.7-0.9-0.7H97.7L97.7,12.5z"/>
<path fill="#0098D8" d="M95.3,13.8c-0.3,0-0.5,0.2-0.7,0.5l-5.2,8.6c-0.4,0.7-0.1,1.2,0.7,1.2h10.3c0.8,0,1.2-0.6,0.7-1.2l-5.2-8.6
	C95.9,14,95.6,13.8,95.3,13.8"/>
<path fill="#0078BF" d="M110.5,13.8c-0.3,0-0.5,0.2-0.7,0.5l-5.2,8.6c-0.1,0.2-0.2,0.4-0.2,0.5c0,0.4,0.3,0.7,0.9,0.7h10.4
	c0.6,0,0.9-0.3,0.9-0.7c0-0.2-0.1-0.3-0.2-0.5l-5.2-8.6C111,14,110.8,13.8,110.5,13.8"/>
<path fill="#4DA32F" d="M110.5,39c-0.3,0-0.5,0.2-0.7,0.5l-5.2,8.6c-0.1,0.2-0.2,0.4-0.2,0.5c0,0.4,0.3,0.7,0.9,0.7h10.4
	c0.6,0,0.9-0.3,0.9-0.7c0-0.2-0.1-0.4-0.2-0.5l-5.2-8.6C111,39.1,110.8,39,110.5,39"/>
<path fill="#80BA27" d="M115.7,25.1h-10.4c-0.8,0-1.2,0.6-0.7,1.2l5.2,8.6c0.2,0.3,0.5,0.5,0.7,0.5c0.3,0,0.5-0.2,0.7-0.5l5.2-8.6
	C116.8,25.7,116.5,25.1,115.7,25.1"/>
<path fill="#80BA27" d="M118.1,26.4c-0.3,0-0.5,0.2-0.7,0.5l-5.2,8.6c-0.4,0.7-0.1,1.2,0.7,1.2h10.3c0.8,0,1.2-0.6,0.7-1.2l-5.2-8.6
	C118.6,26.5,118.3,26.4,118.1,26.4"/>
<path fill="#4DA32F" d="M123.2,37.7h-10.4c-0.6,0-0.9,0.3-0.9,0.7c0,0.2,0.1,0.4,0.2,0.5l5.2,8.6c0.2,0.3,0.5,0.5,0.7,0.5
	c0.3,0,0.5-0.2,0.7-0.5l5.2-8.6c0.1-0.2,0.2-0.4,0.2-0.5C124.2,38,123.8,37.7,123.2,37.7"/>
<path fill="#4A462A" d="M50.7,61.9h-3.8v9.8c0,0.1-0.1,0.3-0.3,0.3h-0.2c-0.2,0-0.3-0.1-0.3-0.3v-9.8h-3.8c-0.2,0-0.3-0.1-0.3-0.2
	v-0.1c0-0.1,0.1-0.2,0.3-0.2h8.3c0.2,0,0.3,0.1,0.3,0.2v0.1C51,61.8,50.9,61.9,50.7,61.9"/>
<path fill="#4A462A" d="M30.8,71.9h-0.2c-0.1,0-0.2-0.1-0.3-0.2l-1.5-3.9h-5l-1.4,3.9c0,0.1-0.2,0.2-0.3,0.2h-0.2
	c-0.2,0-0.3-0.2-0.2-0.4l3.6-9.7c0.2-0.4,0.6-0.7,1.1-0.7c0.6,0,1,0.3,1.1,0.7l3.6,9.7C31.1,71.7,31,71.9,30.8,71.9 M26.7,62
	c-0.1-0.1-0.2-0.3-0.4-0.3c-0.3,0-0.4,0.1-0.4,0.3L24,67.2h4.6L26.7,62z"/>
<path fill="#4A462A" d="M78.9,71.9h-0.2c-0.1,0-0.2-0.1-0.3-0.2l-1.5-3.9h-5l-1.4,3.9c0,0.1-0.2,0.2-0.3,0.2H70
	c-0.2,0-0.3-0.2-0.2-0.4l3.6-9.7c0.2-0.4,0.6-0.7,1.1-0.7c0.6,0,1,0.3,1.1,0.7l3.6,9.7C79.2,71.7,79.2,71.9,78.9,71.9 M74.8,62
	c-0.1-0.1-0.2-0.3-0.4-0.3c-0.3,0-0.4,0.1-0.4,0.3l-1.9,5.2h4.6L74.8,62z"/>
<path fill="#4A462A" d="M99.5,71.9h-0.2c-0.1,0-0.2-0.1-0.3-0.2l-1.5-3.9h-5l-1.4,3.9c0,0.1-0.2,0.2-0.3,0.2h-0.2
	c-0.2,0-0.3-0.2-0.2-0.4l3.6-9.7c0.2-0.4,0.6-0.7,1.1-0.7c0.6,0,1,0.3,1.1,0.7l3.6,9.7C99.8,71.7,99.7,71.9,99.5,71.9 M95.4,62
	c-0.1-0.1-0.2-0.3-0.4-0.3c-0.3,0-0.3,0.1-0.4,0.3l-1.9,5.2h4.6L95.4,62z"/>
<path fill="#4A462A" d="M52.8,71.8h-0.2c-0.2,0-0.3-0.1-0.3-0.3v-10c0-0.1,0.1-0.3,0.3-0.3h0.2c0.2,0,0.3,0.1,0.3,0.3v10
	C53,71.7,52.9,71.8,52.8,71.8"/>
<path fill="#4A462A" d="M40.1,71.9c-0.3,0-0.4,0-0.6-0.1c-0.1-0.1-0.2-0.2-0.3-0.3l-5.9-9.6c0-0.1-0.1-0.1-0.1-0.1
	c0,0-0.1,0-0.1,0.1v9.7c0,0.1-0.1,0.3-0.3,0.3h-0.2c-0.2,0-0.3-0.1-0.3-0.3v-9.7c0-0.4,0.3-0.7,0.9-0.7c0.5,0,0.7,0.2,0.8,0.4
	l5.9,9.6c0,0.1,0.1,0.1,0.1,0.1c0.1,0,0.1-0.1,0.1-0.1v-9.7c0-0.1,0.1-0.3,0.3-0.3h0.2c0.2,0,0.3,0.1,0.3,0.3v9.7
	C40.9,71.6,40.6,71.9,40.1,71.9"/>
<path fill="#4A462A" d="M88.2,71.9c-0.3,0-0.4,0-0.6-0.1c-0.1-0.1-0.2-0.2-0.3-0.3l-5.9-9.6c0-0.1-0.1-0.1-0.1-0.1
	c0,0-0.1,0-0.1,0.1v9.7c0,0.1-0.1,0.3-0.3,0.3h-0.2c-0.2,0-0.3-0.1-0.3-0.3v-9.7c0-0.4,0.4-0.7,0.9-0.7c0.5,0,0.7,0.2,0.8,0.4
	l5.9,9.6c0,0.1,0.1,0.1,0.1,0.1s0.1-0.1,0.1-0.1v-9.7c0-0.1,0.1-0.3,0.3-0.3h0.2c0.2,0,0.3,0.1,0.3,0.3v9.7
	C89,71.6,88.7,71.9,88.2,71.9"/>
<path fill="#4A462A" d="M16.9,71.9c-1.1,0-2-0.1-2.5-0.1c-0.3,0-0.5-0.1-0.5-0.3v-0.1c0-0.2,0.2-0.3,0.4-0.2
	c0.6,0.1,1.7,0.1,2.6,0.1c2.6,0,3.2-1,3.2-2.1c0-1.1-0.8-1.4-2.7-2.4l-1.1-0.6c-1.6-0.8-2.7-1.5-2.7-2.8c0-1.7,2-2.2,4.1-2.2
	c0.7,0,1.9,0.1,2.4,0.1c0.3,0,0.5,0.1,0.5,0.3v0.1c0,0.2-0.2,0.3-0.5,0.2c-0.2,0-1.6-0.1-2.4-0.1c-2.3,0-3.3,0.6-3.3,1.6
	c0,1,0.8,1.5,2.4,2.3l1.1,0.6c2.1,1,3.1,1.7,3.1,3C20.9,70.5,20.2,71.9,16.9,71.9"/>
<path fill="#4A462A" d="M61.5,71.8h-4c-1.3,0-2.1-0.4-2.1-1.6v-8.7c0-0.1,0.1-0.3,0.3-0.3h0.2c0.2,0,0.3,0.1,0.3,0.3v8.7
	c0,0.9,0.5,1,1.3,1h4c0.2,0,0.3,0.1,0.3,0.2v0.1C61.8,71.7,61.7,71.8,61.5,71.8"/>
<path fill="#4A462A" d="M68.6,71.8h-4c-1.3,0-2.1-0.4-2.1-1.6v-8.7c0-0.1,0.1-0.3,0.3-0.3H63c0.2,0,0.3,0.1,0.3,0.3v8.7
	c0,0.9,0.5,1,1.3,1h4c0.2,0,0.3,0.1,0.3,0.2v0.1C69,71.7,68.8,71.8,68.6,71.8"/>
<path fill="#4A462A" d="M177.3,61.4h-7.1c-1.6,0-1.2,2.3-1.2,2.3h2.8v7.2c0,1.4,2.6,0.9,2.6,0.9v-8.1h1.6
	C177.8,63.6,177.3,61.4,177.3,61.4"/>
<path fill="#4A462A" d="M113.6,69.8c-1,0.1-4.7,0.5-4.7-3.2c0-3.7,3.7-3.4,4.7-3.2c1.8,0.2,1.9-1.7,1.9-1.7c-6.4-1.7-9.3,1.5-9.3,5
	c0,3.4,2.9,6.6,9.3,5C115.6,71.5,115.4,69.6,113.6,69.8"/>
<path fill="#4A462A" d="M120.7,71.8c-3,0-5.3-2.3-5.3-5.2c0-2.9,2.3-5.2,5.3-5.2c3,0,5.3,2.3,5.3,5.2
	C126,69.5,123.7,71.8,120.7,71.8 M120.7,63.6c-1.7,0-2.7,1.2-2.7,3c0,1.8,1.1,3,2.7,3c1.6,0,2.7-1.2,2.7-3
	C123.4,64.8,122.3,63.6,120.7,63.6"/>
<path fill="#4A462A" d="M135.4,61.4l-3.1,5.2l-2.5-4.4c-1-1.5-2.9-0.9-2.9-0.9v9.4c0,1.4,2.6,0.9,2.6,0.9v-6c0,0,1.4,2.2,1.7,2.8
	c0.6,0.9,1.8,0.8,2.3,0l1.8-3v5.3c0,1.4,2.6,0.9,2.6,0.9v-9.4C138,61,135.4,61.4,135.4,61.4"/>
<path fill="#4A462A" d="M166.4,67.7c1.2-0.6,1.9-1.7,1.9-2.9c0-2.4-1.9-3.6-4.4-3.6c-3,0-4.5,0.6-4.5,0.6v9c0,1.4,2.6,0.9,2.6,0.9
	v-8.2c0.5-0.1,1-0.1,1.6-0.1c1.2,0,2,0.2,2,1.4c0,0.6-0.4,1.1-1.4,1.2c-1.3,0.1-0.8,1.2-0.4,1.9l1.5,2.9c0.9,1.7,3.3,0.9,3.3,0.9
	L166.4,67.7z"/>
<path fill="#4A462A" d="M189.7,67.7c1.2-0.6,1.9-1.7,1.9-2.9c0-2.4-1.9-3.6-4.4-3.6c-3,0-4.5,0.6-4.5,0.6v9c0,1.4,2.6,0.9,2.6,0.9
	v-8.2c0.5-0.1,1-0.1,1.6-0.1c1.2,0,2,0.2,2,1.4c0,0.6-0.4,1.1-1.4,1.2c-1.3,0.1-0.8,1.2-0.4,1.9l1.5,2.9c0.9,1.7,3.3,0.9,3.3,0.9
	L189.7,67.7z"/>
<path fill="#4A462A" d="M144.2,61.3c-3,0-4.5,0.6-4.5,0.6v9c0,1.4,2.6,0.9,2.6,0.9v-3.4c0.5,0,1,0,2,0c2.7,0,4.3-1.6,4.3-3.6
	C148.6,62.4,146.7,61.3,144.2,61.3 M144,66.2c-0.8,0-1.2,0-1.7,0v-2.6c0.5-0.1,1-0.1,1.6-0.1c1.2,0,2,0.3,2,1.4
	C145.9,65.6,145.4,66.2,144,66.2"/>
<path fill="#4A462A" d="M154.7,62c-0.5-1.2-2.7-0.6-2.7-0.6l-4,9.5c-0.5,1.3,2.4,0.9,2.4,0.9l0.8-2.1h3.8l0.4,1.2
	c0.6,1.5,3.2,0.9,3.2,0.9L154.7,62z M152.1,67.5l1.1-2.8l1,2.8H152.1z"/>
<path fill="#4A462A" d="M178.5,61.4v9.5c0,1.4,2.6,0.9,2.6,0.9v-9.5C181.1,60.9,178.5,61.4,178.5,61.4"/>
</svg>
